<?xml version="1.0" encoding="utf-8"?>
<!-- Generator: Adobe Illustrator 15.1.0, SVG Export Plug-In  -->
<!DOCTYPE svg PUBLIC "-//W3C//DTD SVG 1.1//EN" "http://www.w3.org/Graphics/SVG/1.1/DTD/svg11.dtd" [
	<!ENTITY ns_flows "http://ns.adobe.com/Flows/1.0/">
]>
<svg version="1.1"
	 xmlns="http://www.w3.org/2000/svg" xmlns:xlink="http://www.w3.org/1999/xlink" xmlns:a="http://ns.adobe.com/AdobeSVGViewerExtensions/3.0/"
	 x="0px" y="0px" width="1000px" height="1000px" viewBox="-77.244 0 1000 1000"
	 overflow="visible" enable-background="new -77.244 0 1000 1000" xml:space="preserve">
<defs>
</defs>
<path fill="#D04745" d="M496.206,61.947c0.311,5.723,0.018,10.239,0.018,10.239s7.17,9.728,11.776,14.335
	c4.609,4.608,0,18.431,0,18.431v5.121c0,0,5.632,17.405,1.535,21.504c-4.094,4.094,0,11.773,0,29.69
	c0,17.921-4.097,48.639-4.097,48.639l23.041,12.288c3.071-8.706,37.885-27.137,37.885-27.137l46.591,0.512
	c0,0,26.622,14.847,42.491,24.062c15.868,9.215,27.135,59.39,27.135,59.39s56.318,12.798,62.46,12.798
	c6.146,0,37.886,37.888,43.005,43.004c5.122,5.122,7.68,18.944,7.68,25.088c0,6.143,3.074,12.799,5.633,27.133
	c0,23.039-8.19,30.718-8.19,38.911c0,8.192,11.261,35.325,11.261,55.805c0,20.48-5.629,29.182-5.629,36.862
	c0,7.681,2.559,28.156,4.606,34.812s-2.048,32.255-2.048,44.542c0,12.286,7.164,45.565,7.164,60.413
	c0,14.849-16.38,51.706-16.38,51.706h46.075V61.947H496.206z M7.296,710.097h52.979c-1.177-14.271-1.784-33.766-1.784-56.313
	c0-44.03-16.896-109.562-16.896-140.281c0-30.717,19.457-75.773,22.019-84.988c2.56-9.214,0-23.548-2.562-34.299
	c-2.561-10.751-1.536-15.359,3.072-26.624c4.608-11.264,11.519-38.651,14.849-41.981c3.327-3.328,16.895-16.896,25.597-25.597
	c8.703-8.703,27.644-15.36,27.644-15.36l110.584-18.43l93.18-51.708v-27.646h-2.562c-3.581,3.585-6.653,34.299-19.967,29.691
	c-13.309-4.606,2.562-36.861,8.197-47.612c5.63-10.751,9.214-26.62,9.214-32.765c0-6.144,0.769-16.127,3.583-18.944
	c2.813-2.816,4.607-10.239,4.607-18.43c0-8.192,2.562-13.311,6.654-17.408c3.781-3.778,4.076-0.633,6.117-19.454H7.296V710.097z"/>
<path d="M799.799,838.276c-9.226-8.205-20.714-18.413-20.714-23.737c0-3.229,4.349-5.286,5.683-5.839
	c8.073-3.344,21.562-2.146,32.091,8.382l15.731,15.731l5.243,5.243v-7.414v-22.248v-44.924v-4.194v-1.396l-1.051-0.92l-3.162-2.755
	c-1.575-1.372-16.421-13.391-52.614-13.391c-30.141,0-61.854,11.074-74.876,40.037v-19.81v-9.216v-3.073h-3.07h-9.216H583.643
	h-9.215h-3.073v3.073v9.216v226.03v9.216v3.073h3.073h9.215h55.676h9.215h3.073v-3.073v-9.216v-85.37h34.94h9.216h3.071v-3.074
	v-9.212v-44.924v-9.216v-3.071h-3.071h-9.216h-34.94v-17.666h42.237h6.253c1.164,35.09,24.622,57.549,43.618,75.654
	c10.218,9.738,20.779,19.809,20.779,26.483c0,4.11-1.71,6.933-5.225,8.632c-3.246,1.567-7.095,1.734-8.598,1.734
	c-7.556,0-23.255-8.307-31.988-14.203l-14.473-11.595l-4.993-3.992v6.392v19.176v49.148v4.191v1.398l1.054,0.916l3.158,2.756
	c0.88,0.766,22,18.77,62.984,18.77c46.573,0,79.099-35.057,79.099-85.243C845.513,878.928,820.172,856.39,799.799,838.276
	 M693.844,802.253h-54.525v42.239h47.229v44.924h-47.229v97.656h-55.676v-226.03h110.201V802.253z M766.415,987.711
	c-36.859,0-54.907-15.742-54.907-15.742V922.82c0,0,24.189,16.513,39.165,16.513c14.975,0,26.109-8.449,26.109-22.656
	c0-28.415-64.506-50.685-64.506-104.824c0-44.159,36.092-58.748,68.73-58.748c32.638,0,44.541,10.366,44.541,10.366v44.924
	c-23.23-23.229-58.749-13.822-58.749,6.145c0,26.111,66.429,48.381,66.429,100.218C833.227,960.451,803.277,987.711,766.415,987.711
	 M318.441,748.753h-51.962h-9.216h-3.071v3.073v9.216v67.837h-17.663v-67.837v-9.216v-3.073h-1.284l-13.706,9.801
	c-1.146,0.815-2.46,1.361-3.845,1.594l-5.367,0.895h11.916v80.124h42.237v-80.124h51.962v223.985h-51.962v-99.066h-42.237v99.066
	h-53.247v-1.026V767.929l-11.667,1.944l-0.622,0.033v214.095v1.026v9.215v3.073h3.072h9.216h53.247h9.214h3.073v-3.073v-9.215
	V898.25h17.663v86.777v9.215v3.073h3.071h9.216h51.962h9.216h3.072v-3.073v-9.215V761.042v-9.216v-3.073h-3.072H318.441z
	 M128.798,925.122c-2.071,0.308-6.615,0.77-15.397,0.77c-12.038,0-29.95-15.338-29.95-57.597c0-24.854,4.865-42.855,14.069-52.056
	c7.078-7.077,15.186-7.077,17.853-7.077c8.122,0,16.635,1.961,16.721,1.978c-0.007,0,9.117,2.143,10.967,2.576l1.209,0.604
	l1.452-0.898c1.466-0.904,1.466-0.904,1.466-14.242v-29.745c-3.868-0.207-8.137-0.429-12.288-0.639v30.384
	c0,0-9.726-2.303-19.45-2.303c-6.66,0-44.286-0.255-44.286,71.419c0,48.126,22.525,69.884,42.237,69.884
	c19.711,0,21.887-2.175,21.887-2.175v45.693c0,0-12.927,4.862-31.871,4.862c-12.8,0-91.13-6.915-91.13-117.242
	c0-54.588,21.901-96.812,60.131-111.945c-2.944-3.566-5.862-7.071-8.298-9.945C24.184,765.027,0,809.17,0,869.317
	c0,128.056,99.194,129.53,103.418,129.53c21.109,0,35.6-5.424,36.205-5.654l5.959-2.239l1.994-0.748v-2.129v-6.38v-45.693V913.76
	v-7.418l-5.243,5.245L128.798,925.122z M552.158,748.753H447.206h-9.216h-3.071v3.073v9.216v226.03v9.216v3.073h3.071h9.216h104.952
	h9.214h3.072v-3.073v-9.216v-2.045v-53.246v-9.216v-3.071h-3.072h-9.214h-37.12v-19.198h30.718h9.216h3.071v-3.073v-9.216v-43.515
	v-9.216v-3.071h-3.071h-9.216h-30.718v-18.176h37.12h9.214h3.072v-3.071v-9.215v-40.701v-9.216v-3.073h-3.072H552.158z
	 M552.158,801.743H502.75v42.749h43.006v43.515H502.75v43.774h49.408v53.246v2.045H447.206v-226.03h104.952V801.743z
	 M411.044,748.753h-55.676h-9.216h-3.072v3.073v9.216v223.985v9.215v3.073h3.072h9.216h55.676h9.215h3.073v-3.073v-9.215V761.042
	v-9.216v-3.073h-3.073H411.044z M411.044,985.027h-55.676V761.042h55.676V985.027z"/>
<polyline fill="#FFFFFF" points="762.914,606.766 762.866,607.066 762.851,607.248 762.914,606.766 "/>
<path fill="#F4B939" d="M71.165,868.295c0-71.674,37.626-71.419,44.286-71.419c9.725,0,19.45,2.303,19.45,2.303v-30.384
	c-8.957-0.451-17.313-0.844-19.579-0.844c-2.841,0-14.72,2.275-24.092,4.385c-3.417,0.768-6.978-0.471-9.183-3.19
	c-2.734-3.371-6.193-7.609-9.628-11.773c-38.23,15.133-60.131,57.357-60.131,111.945c0,110.327,78.33,117.242,91.13,117.242
	c18.944,0,31.871-4.862,31.871-4.862v-45.693c0,0-2.176,2.175-21.887,2.175C93.689,938.179,71.165,916.421,71.165,868.295
	 M355.371,985.027h55.677V761.042h-55.677V985.027z M447.206,987.072h104.952v-55.291H502.75v-43.774h43.006v-43.515H502.75v-42.749
	h49.408v-40.701H447.206V987.072z M583.643,987.072h55.676v-97.656h47.229v-44.924h-47.229v-42.239h54.525v-41.211H583.643V987.072z
	 M266.479,841.166h-42.237v-80.124h-11.913l-41.333,6.887v217.099h53.247v-99.066h42.237v99.066h51.962V761.042h-51.962V841.166z
	 M766.798,814.539c0-19.967,35.519-29.376,58.749-6.145v-44.924c0,0-11.903-10.366-44.541-10.366
	c-32.639,0-68.73,14.589-68.73,58.748c0,54.14,64.506,76.409,64.506,104.824c0,14.207-11.135,22.656-26.109,22.656
	c-14.976,0-39.165-16.513-39.165-16.513v49.148c0,0,18.048,15.742,54.907,15.742c36.862,0,66.812-27.26,66.812-72.954
	C833.227,862.92,766.798,840.65,766.798,814.539"/>
<path fill="#FFFFFF" d="M813.793,624.169c-1.584-10.344-3.221-21.037-3.221-26.191c0-4.428,0.632-11.303,1.248-17.944
	c1.344-14.595,2.083-23.816,0.392-29.31c-1.646-5.354-4.2-24.856-4.2-32.099c0-1.717,0.667-4.234,1.513-7.421
	c1.737-6.559,4.119-15.538,4.119-29.44c0-13.817-4.35-29.299-7.845-41.738c-1.518-5.403-3.406-12.13-3.416-14.068
	c0-1.358,0.911-3.741,1.967-6.5c2.478-6.48,6.223-16.273,6.223-32.41c0-0.542-0.048-1.085-0.144-1.62
	c-1.237-6.933-2.578-12.114-3.654-16.277c-1.066-4.115-1.834-7.089-1.834-9.236c0-4.485-1.761-22.991-10.38-31.604
	c-1.007-1.007-3.892-4.262-6.95-7.705c-29.073-32.761-35.826-38-42.57-38c-3.841-0.209-29.954-5.711-54.839-11.308
	c-3.876-15.342-14.266-50.421-30.126-59.632c-15.759-9.149-42.368-23.995-42.633-24.142c-1.341-0.75-2.852-1.149-4.388-1.167
	l-46.591-0.514c-1.538-0.017-3.053,0.354-4.409,1.072c-12.66,6.699-27.46,15.458-35.912,23.591l-10.771-5.747
	c1.212-10.107,3.379-30.012,3.379-43.491c0-7.863-0.737-13.939-1.277-18.375c-0.256-2.116-0.563-4.676-0.546-5.91
	c4.271-5.403,4.377-14.87,0.288-28.221v-2.398c1.949-6.466,4.49-19.166-2.7-26.356c-2.568-2.568-6.437-7.45-8.97-10.761
	c0.031-2.021,0.024-4.755-0.14-7.799c-0.715-12.963-3.594-21.795-8.812-27.007l-1.818-1.861C485.318,22.831,463.167,0,426.087,0
	c-41.058,0-79.79,26.11-82.89,55.875l-0.54,5.089c-0.301,2.781-1.051,9.67-1.632,12.251c-0.501,0.418-1.102,0.936-1.836,1.668
	c-6.297,6.3-9.354,14.127-9.354,23.927c0,6.836-1.452,11.205-2.116,12.147l0.206-0.232c-4.168,4.168-6.278,12.736-6.278,25.46
	c0,4.428-3.179,18.97-8.165,28.49c-18.891,36.053-14.412,47.349-12.94,51.063c0.886,2.237,2.196,4.182,3.823,5.78l-64.649,35.876
	L130.7,275.565c-0.526,0.085-1.042,0.217-1.542,0.393c-2.141,0.751-21.205,7.638-31.105,17.54l-14.812,14.811l-10.786,10.789
	c-3.282,3.278-5.422,9.523-10.709,26.544c-2.172,6.988-4.414,14.216-6.152,18.46c-4.918,12.021-6.733,18.702-3.508,32.249
	c4.159,17.451,3.736,25.785,2.648,29.701c-0.442,1.591-1.773,5.238-3.317,9.462c-6.651,18.219-19.037,52.128-19.037,77.99
	c0,14.735,3.614,36.61,7.439,59.766c4.432,26.85,9.457,57.279,9.457,80.514c0,22.914,0.626,42.653,1.816,57.071
	c1.701,20.689,4.151,26.947,7.547,30.339c0.946,0.945,2.955,3.251,5.483,6.233c2.436,2.874,5.354,6.379,8.298,9.945
	c3.437,4.164,6.896,8.402,9.628,11.773c2.207,2.72,5.767,3.96,9.183,3.192c9.372-2.111,21.251-4.387,24.092-4.387
	c2.268,0,10.618,0.393,19.579,0.844c4.147,0.212,8.42,0.432,12.288,0.639c4.018,0.218,7.597,0.409,10.114,0.549
	c0.471,0.027,0.938-0.028,1.404-0.073l0.622-0.036l11.667-1.944l41.331-6.887l5.367-0.895c1.385-0.229,2.699-0.778,3.845-1.594
	l13.706-9.801l43.574-31.158l39.341-28.129l2.943-0.153l7.076,7.079c1.73,1.727,4.074,2.699,6.519,2.699h58.109
	c0.791,0,1.58-0.099,2.341-0.303c3.118-0.815,30.334-8.021,40.341-12.322c4.47-0.54,20.906,5.642,35.431,13.342
	c1.374,0.73,2.908,1.1,4.463,1.073l63.99-1.022c1.93-0.032,3.799-0.664,5.347-1.813l33.789-25.088
	c3.649-2.707,4.78-7.67,2.664-11.691c-2.113-4.018-6.844-5.899-11.14-4.426l-35.918,12.301h-51.03l-25.627-16.658
	c-2.72-8.933-5.475-18.699-5.785-21.105l-0.01-0.619c-0.081-2.641-0.243-8.14,16.64-11.45c19.438-3.809,36.714-2.801,47.04-2.195
	c3.011,0.177,5.392,0.313,7.372,0.319c5.031,0.333,32.627,9.533,55.321,17.87c4.334,1.591,9.178-0.273,11.33-4.359
	c2.154-4.089,0.944-9.138-2.824-11.812l-44.029-31.23c-1.844-1.308-4.104-1.889-6.349-1.642c-3.145,0.349-7.66,0.838-12.812,1.374
	c8.49-6.816,14.4-15.926,16.236-26.031c8.195-4.11,17.706-13.372,19.343-30.552c5.64-4.114,14.049-12.568,15.79-26.992
	c3.849-2.538,8.034-5.91,10.854-9.904l20.194,0.364c1.586,1.474,5.134,6.192,5.134,18.987c0,22.762-10.463,130.798-33.743,174.884
	l-0.331,0.694c-3.129,7.354-3.47,13.87-1.011,19.371c2.165,4.852,6.322,8.438,12.014,10.372c0.955,0.323,1.956,0.487,2.966,0.487
	h7.116c2.647,0,5.162-1.136,6.913-3.118c4.313-4.893,12.155-20.089,20.096-40.656c-0.175,10.918,1.131,23.008,4.738,36.219
	c0.729,2.674,2.624,4.879,5.158,6c0.2,0.086,1.271,0.556,2.799,1.073c0.949,0.318,1.947,0.482,2.952,0.482h9.523
	c2.081,0,4.104-0.704,5.735-2c2.733-2.172,3.948-4.743,4.347-5.746c0.586-1.479,0.778-3.085,0.561-4.664
	c-2.022-14.604-3.864-56.895,11.241-71.934c4.102,1.545,9.254,3.343,13.959,4.57c-2.809,12.977-6.418,35.125-2.569,50.523
	c0.939,3.76,4.135,6.533,7.991,6.933c3.859,0.398,7.551-1.66,9.244-5.15c9.92-20.491,22.332-44.704,25.143-48.242
	c0.882-0.889,1.72-1.775,2.452-2.556c1.082-1.156,2.498-2.651,3.259-3.202c9.208-0.669,29.24-11.109,31.409-30.778
	c1.369-9.41-3.689-13.097-5.947-14.239c-8.004-4.056-16.426,3.063-19.674,6.314c-4.352,4.352-10.579,6.589-18.494,6.689
	c-41.886-5.286-65.057-48.093-65.337-120.686c0.84-2.528,2.421-6.102,3.939-7.62c3.688-3.685,7.167-7.979,9.162-14.041
	c13.037,3,37.327,7.527,65.214,7.527c2.156,0,4.243-0.756,5.899-2.139l3.071-2.56c2.721-2.269,3.901-5.895,3.035-9.332
	c-0.865-3.433-3.621-6.068-7.093-6.774c-36.871-7.536-70.444-22.511-70.444-31.416c0-5.407,2.894-11.463,6.248-18.48
	c4.518-9.447,10.137-21.202,10.137-35.789c0-12.365-2.063-27.44-15.269-36.064c7.546-3.062,14.617-8.816,18.564-19.487
	c18.861,2.002,69.182,11.844,76.942,60.083c7.511,51.449-15.065,72.987-16.029,73.879c-2.586,2.389-3.619,6.075-2.604,9.444
	c1.007,3.374,3.818,5.909,7.293,6.48c1.021,0.164,7.582,1.059,15.225-1.888c5.645,17.243,10.645,42.167,2.024,50.787
	c-2.033,2.032-3,4.893-2.618,7.742c3.266,24.301,7.059,67.627,3.354,80.431c-0.086,0.298-0.159,0.606-0.212,0.912
	c-1.952,10.731,0.666,17.817,3.197,24.671c2.381,6.451,4.844,13.121,4.844,25.614c0,12.365-4.21,21.185-8.673,30.526
	c-4.545,9.519-9.248,19.362-9.248,32.444c0,5.092,4.127,9.216,9.215,9.216h23.554c3.642,0,6.939-2.142,8.42-5.468
	c1.758-3.96,17.176-39.12,17.176-55.454C817.738,649.912,815.738,636.824,813.793,624.169 M642.753,616.891
	c0.709-3.189,1.373-6.395,1.997-9.617c0.697,1.626,1.306,3.157,1.756,4.44C645.433,613.077,644.155,614.797,642.753,616.891"/>
<path d="M801.358,597.978c0-12.287,4.096-37.886,2.048-44.542s-4.606-27.132-4.606-34.812c0-7.68,5.629-16.382,5.629-36.862
	c0-20.479-11.261-47.612-11.261-55.805c0-8.193,8.19-15.872,8.19-38.911c-2.559-14.333-5.633-20.99-5.633-27.133
	c0-6.145-2.558-19.966-7.68-25.088c-5.119-5.117-36.859-43.004-43.005-43.004c-6.142,0-62.46-12.798-62.46-12.798
	s-11.267-50.174-27.135-59.39c-15.869-9.216-42.491-24.062-42.491-24.062l-46.591-0.512c0,0-34.813,18.431-37.885,27.137
	l-23.041-12.288c0,0,4.097-30.718,4.097-48.639c0-17.917-4.094-25.597,0-29.69c4.097-4.099-1.535-21.504-1.535-21.504v-5.121
	c0,0,4.609-13.823,0-18.431c-4.606-4.608-11.776-14.335-11.776-14.335s0.293-4.516-0.018-10.239
	c-0.406-7.344-1.811-16.675-6.127-20.989c-7.681-7.679-28.157-31.745-63.991-31.745c-35.842,0-71.166,23.039-73.724,47.614
	c-0.197,1.889-0.375,3.555-0.543,5.12c-2.041,18.821-2.336,15.676-6.117,19.454c-4.091,4.098-6.654,9.216-6.654,17.408
	c0,8.191-1.794,15.614-4.607,18.43c-2.813,2.817-3.583,12.8-3.583,18.944c0,6.145-3.584,22.013-9.214,32.765
	c-5.634,10.751-21.506,43.005-8.197,47.612c13.313,4.608,16.386-26.106,19.967-29.691h2.562v27.646l-93.18,51.708l-110.584,18.43
	c0,0-18.941,6.657-27.644,15.36c-8.702,8.701-22.27,22.27-25.597,25.597c-3.33,3.33-10.241,30.718-14.849,41.981
	c-4.608,11.265-5.633,15.873-3.072,26.624c2.562,10.751,5.122,25.085,2.562,34.299c-2.562,9.215-22.019,54.271-22.019,84.988
	c0,30.718,16.896,96.25,16.896,140.281c0,22.548,0.607,42.042,1.784,56.313c1.118,13.593,2.752,22.454,4.875,24.576
	c4.349,4.349,24.058,28.672,24.058,28.672s20.483-4.609,26.114-4.609c5.63,0,42.492,2.046,42.492,2.046l58.364-9.723l57.28-40.962
	l41.531-29.694l9.729-0.51l9.98,9.983h58.109c0,0,30.208-7.938,39.423-12.032c9.215-4.094,43.005,13.822,43.005,13.822l63.991-1.023
	l33.791-25.085l-37.371,12.799h-55.294l-30.718-19.966c0,0-7.169-23.041-7.169-26.625c0-3.581-2.047-16.383,24.064-21.502
	c26.111-5.117,48.126-2.045,56.318-2.045c8.188,0,58.365,18.431,58.365,18.431l-44.033-31.23c0,0-46.077,5.119-57.854,5.119
	c-11.771,0-33.786,1.538-30.202-23.038c0,0,3.841-1.28,6.144,1.023c2.304,2.303,8.19,12.286,32.253,12.286
	c24.059,0,43.516-16.898,43.516-35.838c0,0,18.94-3.585,18.94-29.183c0,0,15.876-7.166,15.876-27.132c0,0,13.822-7.68,13.822-13.824
	l28.67,0.51c0,0,11.773,3.585,11.773,28.159c0,24.575-10.752,133.626-34.812,179.191c-4.859,11.411,0.613,15.75,5.49,17.403h7.116
	c7.072-8.019,32.87-63.635,40.636-121.846c0,0,3.842-2.177,6.913,0.895c3.07,3.071,12.476,23.611,10.751,25.343
	c-1.73,1.726-33.603,36.477-17.664,94.841c0,0,0.813,0.361,2.021,0.768h9.523c1.1-0.871,1.513-1.919,1.513-1.919
	s-9.215-66.045,18.815-83.705c0,0,18.045,7.293,24.189,7.293h2.688c0,0-9.983,36.095-4.991,56.062c0,0,22.366-46.174,26.686-50.492
	c4.32-4.319,7.296-8.641,11.521-8.641c4.223,0,21.694-7.49,23.229-22.845c1.536-9.983-7.871-2.309-9.982-0.192
	c-2.111,2.111-9.6,9.405-25.536,9.405c-23.358-2.75-74.042-19.644-74.042-131.255c0,0,2.303-8.445,6.656-12.798
	c4.352-4.353,8.19-9.216,8.19-18.944c0,0,32.766,9.728,72.699,9.728l3.071-2.561c0,0-77.818-15.869-77.818-40.443
	c0-16.386,16.385-31.232,16.385-54.27c0-19.454-5.124-33.79-34.816-33.79c-5.885,0-10.493-8.448-0.51-8.448
	s35.837,4.863,40.956-23.039c0,0,82.173,1.537,92.924,68.348c8.448,57.852-18.943,82.171-18.943,82.171s10.108,1.664,18.431-6.657
	c0,0,22.27,52.734,3.839,71.165c0,0,8.703,64.766,3.07,84.22c-3.07,16.893,8.193,20.989,8.193,48.636s-17.922,39.934-17.922,62.971
	h23.554c0,0,16.38-36.857,16.38-51.706C808.522,643.543,801.358,610.264,801.358,597.978"/>
<path fill="#FFFFFF" d="M585.308,692.693c24.06-45.564,34.812-154.616,34.812-179.191c0-24.574-11.773-28.157-11.773-28.157
	l-28.67-0.513c0,6.144-13.822,13.824-13.822,13.824c0,19.966-15.876,27.132-15.876,27.132c0,25.598-18.94,29.183-18.94,29.183
	c0,18.939-19.457,35.838-43.516,35.838c-24.062,0-29.949-9.983-32.253-12.286c-2.303-2.304-6.144-1.023-6.144-1.023
	c-3.584,24.576,18.431,23.038,30.202,23.038c11.776,0,57.854-5.119,57.854-5.119l44.033,31.23c0,0-50.177-18.431-58.365-18.431
	c-8.192,0-30.207-3.072-56.318,2.045c-26.111,5.119-24.064,17.921-24.064,21.502c0,3.584,7.169,26.625,7.169,26.625l30.718,19.966
	h55.294l37.371-12.799l-33.791,25.085l-63.991,1.023c0,0-33.79-17.916-43.005-13.822c-9.216,4.094-39.423,12.032-39.423,12.032
	h-58.109l-9.98-9.983l-9.729,0.51l-41.531,29.694h317.34C585.921,708.443,580.449,704.104,585.308,692.693"/>
<path fill="#FFFFFF" d="M778.317,598.49c5.633-19.454-3.07-84.22-3.07-84.22c18.431-18.431-3.839-71.162-3.839-71.162
	c-8.322,8.318-18.431,6.654-18.431,6.654s27.392-24.317,18.943-82.171c-10.751-66.811-92.924-68.348-92.924-68.348
	c-5.119,27.904-30.973,23.039-40.956,23.039s-5.375,8.448,0.51,8.448c29.692,0,34.816,14.336,34.816,33.79
	c0,23.038-16.385,37.888-16.385,54.27c0,24.574,77.818,40.446,77.818,40.446l-3.071,2.558c-39.934,0-72.699-9.728-72.699-9.728
	c0,9.728-3.839,14.591-8.19,18.944c-4.354,4.353-6.656,12.8-6.656,12.8c0,111.609,50.684,128.502,74.042,131.255
	c15.937,0,23.422-7.297,25.536-9.408c2.108-2.111,11.519-9.791,9.982,0.192c-1.535,15.357-19.009,22.845-23.234,22.845
	c-4.22,0-7.195,4.321-11.516,8.641c-4.319,4.318-26.686,50.492-26.686,50.492c-4.992-19.967,4.991-56.062,4.991-56.062h-2.688
	c-6.145,0-24.189-7.293-24.189-7.293c-28.03,17.66-18.815,83.705-18.815,83.705s-0.413,1.048-1.513,1.919h118.494
	c0-23.037,17.922-35.324,17.922-62.971S775.247,615.383,778.317,598.49"/>
<path d="M596.572,711.125c0.305,0,0.77-0.377,1.341-1.028h-7.114C593.796,711.117,596.572,711.125,596.572,711.125"/>
<path d="M646.615,711.249c1.593,0,2.702-0.533,3.479-1.152h-9.523C642.155,710.633,644.435,711.249,646.615,711.249"/>
<path fill="#FFFFFF" d="M325.611,668.244c0,0,6.911,7.681,42.238,7.681c35.326,0,28.799-0.768,28.799-0.768l28.029-18.048
	c0,0,3.84-4.223,3.84-18.431c0-14.206-6.911-31.486-53.757-31.486h-9.983L325.611,668.244z"/>
<path fill="#FFFFFF" d="M372.84,593.755c0-2.307,20.735-27.647,26.494-33.408c5.759-5.759,24.958-10.367,24.958,13.438
	c0,23.809-4.608,24.576-26.878,24.576C375.144,598.361,372.84,593.755,372.84,593.755"/>
<path fill="#FFFFFF" d="M490.336,549.979c-9.94,0.941-28.799,1.921-28.799,12.288c0,10.365,12.673,15.358,24.959,15.358
	c12.287,0,30.719-6.144,30.719-14.207S504.88,548.606,490.336,549.979"/>
<path fill="#FFFFFF" d="M596.314,449.763c0,0,8.831,5.759,17.663,5.759s14.974-7.679,14.974-12.672
	C628.951,437.86,611.674,449.763,596.314,449.763"/>
<path fill="#FFFFFF" d="M494.177,516.19c0,0,22.654,20.735,30.334,23.807c7.68,3.071,13.054,0,10.367-8.063
	c-2.688-8.063-30.333-27.263-30.333-31.486v-14.976c0,0,25.34,21.504,31.868,23.423c6.528,1.919,14.206,3.071,14.206-5.759
	c0-4.224-30.718-27.263-32.638-29.182c-1.919-1.921-1.919-13.824-1.919-13.824s29.95,19.583,36.095,21.502
	c6.143,1.921,13.055,0,13.055-4.992c0-4.991-33.6-26.685-39.165-32.253c-5.569-5.566-5.569-16.896-5.569-16.896
	s30.525,21.12,38.974,24.958c8.447,3.84,15.744,2.688,13.824-5.375c-4.609-10.751-45.694-39.166-45.694-39.166l-3.838-3.839
	c0,0-7.681-1.921-16.896-1.921c-9.216,0-54.337,32.064-80.25,57.981c-25.917,25.917-108.665,68.348-134.009,79.099
	c-61.819,26.495-103.289,36.095-125.175,54.526c-21.886,18.429-41.854,44.155-41.854,44.155s-4.223,2.688-4.223-7.68
	c0-21.886,13.438-26.108,13.438-33.789c0-7.68-18.813-13.055-18.813-36.862c0-23.807,0-34.558,5.375-29.182
	c5.376,5.375,10.751,41.469,26.878,41.469c16.126,0,64.892-19.581,64.892-35.71c0-16.126,2.305-65.275,2.305-65.275
	s-19.583-23.423-19.583-36.093c0,0-52.989,13.439-71.42,9.216c0,0,57.597-23.807,65.277-35.326
	c7.679-11.521,13.822-40.318,20.734-47.229c6.911-6.911,26.11-36.093,31.485-36.093c2.688,2.687-4.992,14.975-8.448,26.11
	c-3.455,11.135-14.591,50.684-14.591,61.819c0,11.136,11.904,32.639,79.868,27.646c67.963-4.992,104.441-11.135,109.433-68.348
	l3.07-32.637c0,0-14.589-27.263-50.3-27.263c-30.333,0-43.199-14.017-45.692-16.511c-2.498-2.498,96.188,3.646,112.889,20.351
	c0,0,1.151,2.303,5.759-2.304c4.607-4.607,12.672-9.984,18.046-9.984c5.377,0,13.057-1.919,13.057-7.678
	c0-5.76,34.174-47.614,58.364-23.423c9.408,9.406,6.911,0,6.911,0c-4.991-4.992-17.661-11.519-17.661-18.047
	c0-6.527,3.07-21.886-6.146-21.886c-4.992,0-3.07,15.743-3.07,15.743v8.832h-3.841c0,0-8.833-9.983-11.903-23.039
	c-3.071-13.054,0.384-43.773-13.055-54.141c-13.44-10.367-9.216,5.375-9.216,14.208c0,8.832-1.919,28.798-15.359,38.014
	c-8.638,4.415-9.983,34.941-9.983,34.941l-3.071,3.072l-1.921-1.92v-39.55l-2.109-2.112v-2.495v-2.687
	c0,0,13.246-11.52,13.246-31.871s-0.77-36.093-25.728-36.093c-24.958,0-32.637,40.701-20.734,69.883v2.304h-1.919
	c0,0-19.583-10.752-19.583-44.541v-6.528l-1.537-1.536c0,0-11.902,14.591-16.51,32.637c-4.608,18.047-16.511,69.885-16.511,69.885
	l-2.304,2.303h-1.919l-1.152-1.152l-1.537-1.535V242.8c0,0-44.158,16.51-63.356,26.878c-19.198,10.368-61.051,22.271-95.993,25.342
	c-34.941,3.072-38.014,7.68-38.014,7.68l-38.396,31.485c0,0-13.055,37.247-9.983,61.053c3.071,12.295,23.228,43.966,23.228,43.966
	l-22.845,0.191c0,0-6.528,12.286-15.744,52.987c-9.214,40.703-3.071,56.829-3.071,56.829s4.608,71.803,4.608,102.521
	c0,30.721,3.265,66.236,12.286,75.26c9.025,9.024,16.896,13.055,27.263,13.055h38.013c9.6,0,33.022-5.758,39.935-5.758h16.126
	c0,0,76.794-54.142,88.699-70.651c11.902-16.512,53.562-87.741,72.955-107.13c19.389-19.393,33.405-23.038,53.757-18.047
	C446.564,543.452,453.86,549.212,494.177,516.19"/>
<path fill="#FFFFFF" d="M424.293,18.557c-16.895,0-53.373,4.993-61.819,33.791v3.84h2.687c0,0,16.896-13.823,35.325-13.823
	c18.432,0,16.512,5.759,16.512,7.68c0,1.919-8.064,14.207-24.958,14.207c-16.896,0-37.246,9.6-37.246,16.127
	c0,6.527,8.063,19.967,35.326,6.527c0,0,1.535,4.608-1.152,4.608c-2.688,0-38.782,18.815-38.782,64.892
	c-0.958,21.312,9.6,10.752,9.6,10.752s31.485-41.086,62.588-41.086c31.103,0,64.892,41.854,64.892,41.854l3.839,3.84
	c0,0,5.761,1.919,5.761-16.896s-14.977-50.3-40.317-64.508l-1.536-1.536l1.345-1.346c0,0,7.871,7.874,21.693,5.954
	c13.822-1.921,12.287-7.296,12.287-11.904S475.363,63.1,455.395,63.1s-25.727-11.904-25.727-14.207
	c0-2.305-0.384-6.913,19.199-6.913c19.583,0,24.384,14.017,28.03,13.056c3.644-0.958,4.223,0,4.223-3.072
	C481.121,48.893,471.905,18.557,424.293,18.557"/>
<path d="M445.027,82.939c-5.122-9.73-20.224-22.526-20.224-22.526s-15.101,12.796-20.219,22.526c0,0-0.768,4.478,4.479,4.478h15.74
	h15.744C445.792,87.417,445.027,82.939,445.027,82.939"/>
<path d="M376.421,131.062h2.562c0,0,18.941-18.43,23.039-19.453h39.674l25.345,17.15l0.768-0.768l-24.061-27.134h-36.86
	C406.888,100.857,388.326,113.017,376.421,131.062"/>
<path fill="#FFFFFF" d="M330.092,166.646l2.944,2.942c0,0-6.912,29.44-11.649,34.174c-4.737,4.737-6.911,0.768-6.911-2.813
	C314.476,197.363,323.949,169.204,330.092,166.646"/>
<path fill="#FFFFFF" d="M341.864,116.984c0,0-4.604,6.657-3.324,10.752C339.818,131.83,345.75,124.762,341.864,116.984"/>
<path fill="#FFFFFF" d="M500.832,117.239c0,0-1.79,10.752,2.052,10.752C506.721,127.991,509.025,123.128,500.832,117.239"/>
<path fill="#FFFFFF" d="M469.652,398.617c0,0-23.714-27.456-22.049-62.4v-4.16h-2.075l-6.243,6.241l2.497,60.319l12.896,12.894
	L469.652,398.617z"/>
<path fill="#FFFFFF" d="M415.572,441.05l0.417,3.745l-28.705,20.383l-142.271,68.225h-5.41c0,0-10.815-30.786,7.071-56.576
	C246.675,476.827,319.474,483.48,415.572,441.05"/>
<path fill="#F4B939" d="M640.854,306.156c11.521,0,21.693,1.919,21.693-10.177c0-12.095,5.569-48.572-12.092-62.012
	c-17.663-13.439-41.088-24.574-54.909-24.574c-13.825,0-27.647,0.768-27.647,0.768s-19.007,7.49-25.727,19.967
	c-6.721,12.481-11.902,21.887-1.536,32.255c10.367,10.367,15.36,16.126,10.367,21.118c-4.99,4.991-24.572,18.815-34.172,11.904
	c-9.6-9.599-31.485-17.664-46.846,25.726c-11.519,33.021,8.831,65.66,23.04,65.66c12.286,0,26.876-4.992,31.485-4.992
	c4.606,0,36.668,32.063,36.668,32.063s15.553,19.005,29.758,19.005c14.208,0,63.931-17.085,64.893-79.867
	c0-6.527-11.519-6.144-23.421-6.144c-11.905,0-19.967-8.832-19.967-21.886C612.442,311.916,625.113,306.156,640.854,306.156"/>
<path d="M627.168,710.186c0,0-3.718-24.863-2.291-29.723h-1.71l-10.861,27.152v1.711l0.177,0.68
	C612.483,710.006,615.95,713.916,627.168,710.186"/>
<polygon points="642.045,605.263 644.954,606.45 648.258,611.741 646.804,615.703 641.516,623.105 640.394,624.232 639.137,621.52 
	"/>
</svg>
