<?xml version="1.0" encoding="utf-8"?>
<!-- Generator: Adobe Illustrator 15.1.0, SVG Export Plug-In  -->
<!DOCTYPE svg PUBLIC "-//W3C//DTD SVG 1.1//EN" "http://www.w3.org/Graphics/SVG/1.1/DTD/svg11.dtd" [
	<!ENTITY ns_flows "http://ns.adobe.com/Flows/1.0/">
]>
<svg version="1.1"
	 xmlns="http://www.w3.org/2000/svg" xmlns:xlink="http://www.w3.org/1999/xlink" xmlns:a="http://ns.adobe.com/AdobeSVGViewerExtensions/3.0/"
	 x="0px" y="0px" width="1000px" height="1000px" viewBox="0 -295.135 1000 1000"
	 overflow="visible" enable-background="new 0 -295.135 1000 1000" xml:space="preserve">
<defs>
</defs>
<path fill="#FFFFFF" d="M33.964,123.439c1.095-2.688,7.153-11.772,12.327-19.403c-1.213,0.283-2.514,0.448-3.893,0.448
	c-10.151,0-21.629-8.612-21.629-22.395c0-14.155,11.795-21.103,20.951-21.103c4.768,0,8.378,1.655,10.79,3.348
	c0.561,0.392,1.056,0.786,1.486,1.16c6.045-0.982,20.772-3.394,24.161-4.094c0.232-0.134,0.697-0.45,1.113-0.805
	c0.849-0.722,1.805-1.733,2.878-2.973c1.112-1.286,2.191-2.626,3.194-3.804c0.999-1.176,2.209-2.547,3.442-3.537
	c1-0.806,2.168-1.34,3.088-1.7c0.906-0.358,1.993-0.706,3.205-1.036c2.122-0.582,4.671-1.126,7.24-1.659
	c2.396-0.495,4.812-0.98,6.857-1.479c-1.264-7.604-3.058-14.046-4.871-19.026c-1.145-3.151-2.106-5.713-2.595-7.625
	c-0.269-1.05-0.541-2.396-0.465-3.768c0.077-1.396,0.576-3.411,2.377-4.879c0.176-0.148,3.92-3.396,5.077-5.789L110.3,0
	c0,0,16.687,2.367,27.901,2.367c6.326,0,7.297,5.552,7.039,8.01c-0.121,1.164-0.435,2.191-0.663,2.833l-0.27,0.708
	c-0.386,1.563-1.797,7.446-1.797,9.558c0,6.265,1.36,16.566,2.24,22.593c24.072-3.002,129.961-16.196,148.955-18.241
	c34.514-3.719,53.901,9.143,54.566,9.592l3.483,2.355l-1.688,3.853c-0.835,1.906-8.043,15.351-41.9,20.696
	c-13.366,2.111-132.489,17.301-158.999,20.676c1.13,6.149,3.406,16.78,6.626,24.503c0,0,0.226,0.604,0.414,1.342
	c0.184,0.714,0.374,1.678,0.438,2.666c0.087,1.348,0.063,7.097-5.694,8.196l-23.444,4.776l-11.577-4.875l-1.271-5.764
	c0,0,1.027-2.761,1.609-4.885c0.596-2.167,1.273-5.112,1.582-8.259l0.027-0.368c-1.084,0.161-2.124,0.285-3.098,0.41
	c-0.975,0.127-1.87,0.246-2.644,0.455c0.343,1.544-3.885,23.396-3.885,31.187c0,3.371-0.914,5.924-2.199,7.759
	c-1.55,2.216-3.197,2.873-3.197,2.873l-8.136,4.179c-0.759,3.378-2.187,9.941-3.185,15.653c13.801-2.996,28.695-5.221,44.29-6.06
	l4.307-13.206c0,0,5.737,2.174,6.781,2.827c0.853,0.535,1.945,1.334,3.105,2.478c1.287,1.269,2.623,2.931,3.798,5.065
	c14.708-10.194,31.69-16.576,39.328-16.576c6.644,0,15.586,7.479,26.828,26.45c0.699-0.461,1.443-0.934,2.209-1.394
	c2.54-1.522,6.636-3.741,10.3-3.741h6.52l-3.076,11.89c31.167,9.91,52.886,21.912,58.17,24.966H1000v212.184H148.214l-0.98-0.437
	c-0.833-0.37-104.599-46.784-146.278-205.417L0,200.238c0,0,12.177-7.414,27.555-14.291c-0.049-0.92-0.073-1.831-0.073-2.731
	c0-5.592,3.147-16.355,5.843-25.349c1.397-4.667,2.797-9.218,3.846-12.952c0.408-1.45,0.76-2.772,1.035-3.92
	c-0.733-0.509-1.505-1.143-2.238-1.92C32.719,135.621,31.174,130.289,33.964,123.439"/>
<rect x="149.286" y="202.593" fill="#ED1C24" width="845.668" height="202.089"/>
<path fill="#FFFFFF" d="M5.71,202.619c0,0,64.384-39.124,143.446-39.124c79.063,0,143.434,39.124,143.434,39.124
	c-62.081,160.185-143.434,202.087-143.434,202.087S46.867,359.257,5.71,202.619"/>
<path d="M169.134,379.157l4.055-17.025c-1.68-13.918-5.027-20.489-5.815-21.67c-12.006-6.493-51.411-16.686-51.411-16.686
	c-3.493-13.375-5.019-52.767-7.325-52.767c-3.896,0-3.706,17.849-7.892,17.849c-3.806,0-1.521-36.433-4.453-36.433
	c-0.973,0-19.681,43.606-27.179,82.874c-1.864-2.424-8.279-10.72-13.599-18.936c2.792-11.086,6.597-29.141,6.597-41.589
	c0-19.983-29.711-61.854-29.711-91.531c0-9.311,11.26-39.411,11.26-45.036c0,0-9.337-2.559-5.15-12.838
	c1.683-4.126,22.582-34.12,22.582-34.12l-6.445,0.924c0,0-4.718,7.292-12.378,7.292c-7.659,0-16.582-6.64-16.582-17.35
	c0-10.707,8.828-16.053,15.906-16.053s10.478,4.865,10.478,4.865s22.654-3.664,26.979-4.557c4.325-0.892,9.517-9.515,12.769-12.13
	c3.25-2.612,19.396-4.237,23.194-6.51c-2.276-19.994-11.22-32.556-8.274-34.726c0,0,4.667-3.92,6.375-7.461
	c0,0,13.42,1.9,24.961,1.9c3.64,0,1.308,4.877,1.308,4.877s-2.046,7.992-2.046,11.183c0,9.549,3.044,28.21,3.044,28.21
	s132.292-16.529,153.736-18.838c32.988-3.553,51.197,8.754,51.197,8.754s-5.518,12.6-38.065,17.739
	C292.211,61.739,143.19,80.683,143.19,80.683s2.664,18.422,7.77,30.666c0,0,1.747,4.887-1.084,5.428l-21.976,4.475l-7.733-3.256
	l-0.387-1.759c0,0,2.284-6.092,2.967-13.025c0,0,0.459-4.865-0.408-7.054c-5.985,1.997-11.541,1.156-14.108,3.39
	c0,0-5.154,25.752-5.154,34.862c0,4.838-2.577,6.104-2.577,6.104l-10.31,5.291c0,0-4.477,19.345-4.884,26.587
	c0,0,20.127,24.903,22.383,53.447c0,0,6.662,2.633,15.192,16.548c0,0-0.323-21.215,1.186-28.271
	c1.377-6.453,2.75-9.576,3.915-15.371l15.179-46.546c0,0,5.991,2.464,8.206,11.783c15.333-12.219,34.69-19.534,41.646-19.534
	c3.775,0,12.319,5.566,25.202,28.705l0.087-0.364l0.356,0.096c1.862-1.43,9.54-7.12,13.692-7.12l-2.648,10.236
	c37.928,11.448,62.888,26.619,62.888,26.619c-39.981,103.16-87.954,157.263-117.045,182.71
	c-14.505,12.793-26.387,19.375-26.387,19.375s-22.446-9.747-51.929-38.002l2.864-14.423l31.47,12.19l3.934-19.263l29.301,9.769
	l-3.936,20.888L169.134,379.157z"/>
<path fill="#FFFFFF" d="M160.659,300.596c0-1.947,1.579-3.527,3.527-3.527c1.947,0,3.526,1.58,3.526,3.527s-1.579,3.527-3.526,3.527
	C162.238,304.123,160.659,302.543,160.659,300.596"/>
<path fill="#FFFFFF" d="M147.201,307.122c2.124-0.004,3.703,1.573,3.703,3.523c0,0.571-0.215,1.872-0.215,1.872
	c1.492,0.95,3.392,2.169,5.292,1.084c0.113-0.131,0.289-0.265,0.512-0.402c0.331-1.604,1.752-2.812,3.454-2.812
	c5.141,0,4.64,7.652-0.831,6.957c0,0-0.891,0.442-1.103,1.005c-0.406,0.95,0.273,1.898,1.087,2.306
	c0.813,0.271,1.626,0.68,1.763,1.627c-0.814,2.577-1.763,5.562-5.019,5.97c-4.827-1.091-28.428-8.704-32.015-10.31
	c-2.314-6.005-5.358-44.833,5.108-59.296c-0.134-1.764-1.494-18.182,1.505-39.979c1.069-7.756,2.747-10.37,2.747-10.514
	c0-1.947,1.58-3.526,3.527-3.526c1.949,0,3.526,1.579,3.526,3.526c0,0.475-0.095,0.929-0.263,1.343
	c0.353,0.493,1.035-0.227,1.619-0.345c1.004,0,1.825,0.368,2.761,0.273c-0.182-0.43-0.285-0.899-0.285-1.394
	c0-1.949,1.58-3.529,3.527-3.529s3.526,1.58,3.526,3.529c0,1.936-1.562,3.507-3.491,3.525c-0.604,0.461-1.25,0.76-1.967,0.58
	c-0.542,0.95-1.766,1.628-1.766,2.712c0.546-0.204,1.137-0.368,1.766-0.368c1.947,0,3.524,1.58,3.524,3.528
	c0,1.947-1.577,3.527-3.524,3.527c-0.274,0-1.095,0.023-1.222,0.097c-0.813,0.406-1.221,1.356-1.084,2.034
	c0.821,0.41,0.778,1.647,0.982,1.647c1.947,0,3.526,1.58,3.526,3.527c0,1.175-0.574,2.214-1.456,2.858
	c-1.517,6.636-2.003,14.757,1.018,29.815c1.084,1.626,1.356,3.525,2.034,5.289c-0.95,2.579,1.356,4.206,2.034,6.512
	c0.678,1.356,2.712,2.578,1.222,4.204c0.406,1.766,1.898,2.442,2.577,3.798c0.264,0.57,0.653,0.986,1.089,1.34
	c2.068-0.002,3.647,1.577,3.647,3.523c0,2.407-1.579,3.529-3.526,3.529c-1.006,0-1.904-0.251-2.16-0.251
	c-0.678-0.679-1.763-0.679-2.576-0.408c-0.542,0.542-0.408,1.358-0.95,1.9c0.55,2.387,2.595,2.66,4.194,3.642
	c1.28,0.531,2.181,1.79,2.181,3.26c0,1.316-0.806,3.529-3.527,3.529c-1.269,0-2.306-0.665-2.306-0.665
	c-2.306-0.679-3.526-3.662-6.512-2.306c-0.406,1.222-0.813,2.306-0.271,3.664c1.086,0,0.136,0.948,0.136,1.356
	c-0.271,1.084-2.171,1.628-1.629,3.255c0.545,0.543,1.358,1.356,2.306,0.951C146.077,307.498,146.485,306.821,147.201,307.122"/>
<path fill="#FFFFFF" d="M189.621,234.112l-7.917-1.628l10.969-35.945c0,0-30.831-2.652-58.486,3.524c0,0,5.577-21.781,10.535-33.096
	c0,0,4.178,4.843,4.746,17.632c0,0,22.271-3.273,33.235-0.95c0,0,14.918-17.499,24.483-17.499L189.621,234.112z"/>
<path fill="#FFFFFF" d="M192.74,151.366c0.782,3.8,0.642,7.27,0.679,9.494c0.103,6.175-5.291,7.868-8.818,11.531
	c-2.169,1.764-3.935,5.428-7.868,4.477c-6.919,0.271-13.837,0-20.754,1.085c-0.408,0-2.578-6.663-2.306-7.613
	c1.796-5.505,30.86-20.333,37.574-20.333C191.911,150.008,192.602,150.687,192.74,151.366"/>
<path fill="#FFFFFF" d="M160.727,203.184c1.72,0.958,4.788,2.217,6.365,2.809c-0.386,0.871,0.097,2.804-0.659,2.599
	c-2.474-1.141-4.28,2.285-3.141,3.331c0.857,1.047,12.491,6.862,12.491,6.862c1.766,0.406,2.442-0.95,3.122-2.034
	c1.084-2.035-1.492-4.072,0-5.564c0.95,0.544,2.169,0.816,2.306,2.038l-4.883,18.448c-4.206-0.273-6.375,3.39-9.767,5.018
	c-3.799,2.576-6.375,6.511-9.903,9.224c-0.542,0.95,0.137,1.627,0.679,2.306c1.492,1.084,3.39-1.492,4.34,0.95
	c1.764-0.544,3.39,2.035,5.02,0.271c2.168-1.222,2.982,1.626,5.154,0.408c0.408-0.408,1.221-0.545,1.764-0.273
	c0.542,0.815,1.627,0.815,2.577,0.542c1.629-0.134,3.39-2.44,4.883-0.676c0.271,1.626,2.984,6.238,2.984,6.512
	c-1.191,0.061-10.168-1.174-14.232-1.261c-1.526,0.157-0.958,3.492,0.153,3.541l9.333,2.061c0.924,0.13,1.073,2.019,0.542,2.169
	c0,0-3.56,1.68-7.896,0.912c-3.052-0.54-3.621,2.314-0.75,2.716c1.39,0.746,3.828,1.015,4.04,3.131
	c0.137,1.355,0.157,4.833-5.997,4.029c-2.411-0.312-9.653-0.942-13.228-5.146c-2.276-2.675-5.882-20.902-4.657-25.854
	c0.499-2.013-0.271-3.799,1.222-5.291c0.813-1.356,1.9-2.44,2.577-4.07c0.679-1.084,2.985-1.219,2.442-2.848
	c-0.812-1.084-2.306-1.492-2.306-2.982c-0.544-0.678-1.221-1.086-1.628-2.036c1.492-7.596,4.206-14.651,6.783-21.568
	L160.727,203.184z"/>
<path fill="#FFFFFF" d="M58.315,162.474c1.892,0.592,3.264,2.359,3.264,4.448c0,2.573-2.084,4.659-4.659,4.659
	c-1.477,0-2.795-0.688-3.647-1.76c-0.198,0.22-0.334,0.642-0.387,1.35c0.271,1.626,3.477,4.414,3.039,7.962
	c-0.317,2.555-2.086,4.659-4.661,4.659c-0.821,0-1.592-0.212-2.262-0.584c-1.239-0.553-4.198-1.396-2.75-5.554
	c-0.76,0.828-3.806,3.675-4.218,5.182c-0.813,2.984,2.542,4.884,4.474,4.14c5.597-2.155,10.458,5.35,3.632,8.612
	c-1.063,0.506-0.715,1.902,0.797,1.413c4.185-1.352,8.758,6.332,2.142,9.168c0,0,4.01,14.085,4.564,16.669
	c0.922,4.123,0.128,19.547,0.128,19.547c-1.223-2.44-9.839-20.14-13.168-30.419c-3.089-9.532-6.754-26.737-6.095-33.742
	c0.766-8.128,9.496-34.591,11.396-38.389c0.142-1.001,1.041-1.324,1.858-1.704c-0.493-0.738-0.78-1.627-0.78-2.583
	c0-2.574,2.086-4.659,4.659-4.659c2.574,0,4.657,1.904,4.657,4.81c0.861-0.526,1.981-0.211,1.981-0.211
	c-0.108-0.396-0.168-0.812-0.168-1.242c0-2.573,2.088-4.659,4.661-4.659c2.574,0,4.659,2.086,4.659,4.659
	c0,2.084-1.368,3.848-3.254,4.443c0.204,0.362,0.404,0.653,0.606,0.946c1.144,0.85,1.886,2.211,1.886,3.747
	c0,2.573-2.086,4.659-4.659,4.659c-0.768,0-1.495-0.187-2.134-0.517c-0.487,0.157-0.946,0.357-1.36,0.587
	c-0.408,0.542-0.948,1.084-0.542,1.626c0.829,0.511,1.626,1.229,2.254,2.074c0.976,0.854,1.591,2.108,1.591,3.505
	c0,2.576-2.086,4.661-4.661,4.661c-0.848,0-1.643-0.227-2.327-0.624l-0.655,0.015C56.846,160.255,57.78,161.413,58.315,162.474"/>
<path fill="#FFFFFF" d="M133.665,11.972c-2.814,11.109,0.509,31.028,1.018,37.812c0.408,0.136-0.272,2.151-0.272,2.151
	c-5.156-2.151-8.98-2.85-9.226-4.34c-3.025-18.528-8.206-31.586-9.832-36.47C121.966,11.972,130.171,12.397,133.665,11.972"/>
<path fill="#FFFFFF" d="M130.07,55.461c0.678,3.256,2.171,6.104,2.442,9.496c-0.544,1.085-1.912,2.362-3.214,1.556
	c-2.62-1.611-3.734-8.649-5.595-8.524c-1.486,0.122-1.363,6.424-1.635,9.003c-0.038,0.946-5.02,2.321-5.02-0.271
	c0-1.358,0.689-7.042-1.496-6.98c-1.303,0-3.046,7.388-4.277,9.995c-0.68,1.443-4.231,2.062-4.975-0.372
	c-0.681-2.044-1.006-3.236-1.92-5.285c-0.263-1.625-2.621-0.788-2.621,1.133c-0.248,3.362-1.549,5.906-2.23,7.578
	c-0.624,1.533-3.487,1.612-3.674,0.434c-1.31-2.288,1.938-8.772-1.594-9.486c-1.222-0.136-2.443-0.68-3.664-0.136
	c-0.135-1.22,1.628-1.22,2.306-1.898c6.988-5.705,26.593-8.818,30.656-8.818C126.061,52.885,128.036,54.241,130.07,55.461"/>
<path fill="#FFFFFF" d="M130.613,74.859c0.271,1.084,0.678,1.218,0.678,3.122c0,0.952-2.036,1.898-3.526,2.032
	c-2.034-0.948-4.071-2.169-6.377-1.22c-1.084-0.136-2.168-0.812-2.44-1.763c0.135-1.901,2.035-2.985,3.391-3.935
	c2.035-0.813,4.612-1.626,6.783-0.271C129.121,72.825,130.477,74.181,130.613,74.859"/>
<path fill="#FFFFFF" d="M72.013,91.545c4.612,1.221,7.462,5.02,11.258,8.002c0.95,2.034,2.984,3.392,2.984,5.833
	c-1.763,5.968-2.169,12.48-4.34,18.176c-0.95,1.493-2.577,1.358-4.07,1.222c-11.723-1.065-24.214-0.388-34.59,2.848
	c0-5.609,16.685-29.03,19.398-33.912c0,0,2.001-3.254,4.206-3.254C68.485,91.137,70.249,91.002,72.013,91.545"/>
<path fill="#FFFFFF" d="M41.423,70.383c5.386,0,7.462,4.835,7.462,4.835s34.11-5.205,36.234-5.648
	c2.373-0.495,3.695,5.265,0.473,5.843l-37.319,5.823c0,0-1.77,3.818-7.358,3.818c-3.118,0-7.155-2.696-7.155-6.783
	S36.038,70.383,41.423,70.383"/>
<path fill="#FFFFFF" d="M141.647,67.012l-1.018-9.921c0,0,117.761-15.687,149.298-19.079c31.54-3.391,44.341,4.649,44.341,4.649
	L141.647,67.012z"/>
<path d="M790.887,261.669l-4.639,23.026l-37.538-0.647l-0.559,2.906l35.334-0.848l-5.533,30.31l-35.493-0.633l-0.957,5.372
	l38.126-0.633l-5.179,26.282C778.716,343.198,792.363,264.538,790.887,261.669 M857.764,331.514l3.75-19.385l10.223,4.432
	c3.289,1.427,6.305,2.601,9.072,3.543l-0.604-0.327c-6.45-3.632-10.986-8.338-13.412-14.368c-3.224,5.087-7.83,9.246-13.596,12.242
	c0.875,2.585,1.767,5.297,2.373,7.343C856.275,327.374,857.01,329.541,857.764,331.514 M295.74,285.881
	c0,0-9.322-10.916-21.4-10.916c-8.992,0-15.501,5.076-19.879,11.068c-3.503,4.767-6.304,11.056-6.304,18.782
	c0,14.558,6.961,19.245,12.968,19.245c3.721,0,10.632-2.084,18.097-5.811l11.245-6.083
	C291.438,307.738,294.863,290.225,295.74,285.881 M372.298,322.475c0-2.897,0.395-6.482,1.114-10.769l0.548-3.107
	c-2.984,3.653-6.785,6.707-11.296,9.053c0.875,2.585,1.766,5.297,2.374,7.343c7.736,26.065,22.713,28.885,26.407,29.99
	C378.53,347.51,372.298,335.971,372.298,322.475 M460.552,300.988l-0.469,2.479c-0.662,3.545-1.222,6.688-1.72,9.42l8.477,3.673
	c3.29,1.427,6.306,2.601,9.073,3.543l-0.603-0.327C467.36,315.3,462.317,309.194,460.552,300.988 M661.432,289.837l-6.172,30.615
	c7.917-1.95,13.398-9.028,13.398-21.249C668.658,293.409,666.591,290.484,661.432,289.837 M297.223,355.618
	c-22.395,0-22.538,4.983-42.071,4.983c-29.186,0-48.63-24.202-48.63-56.709c0-24.139,20.291-66.01,64.668-66.01
	c22.375,0,31.999,7.264,31.999,7.264l-1.809,9.658h42.415c9.348,0,19.812,0.198,28.202,7.911c3.862,3.562,6.609,8.17,8.151,13.287
	c0.744-4.482,1.473-9.275,2.142-14.378l1.146-7.643l8.771,1.039c3.728,0.439,7.45,0.902,11.178,0.902
	c3.398,0,7.096-0.342,11.292-0.89l13.237-1.724l-3.439,11.783c-8.822,33.069-11.594,52.297-11.594,57.144
	c0,0.372,0.012,0.686,0.034,0.944c0.502,0,0.801-0.047,0.977-0.089c2.425-4.601,7.44-24.244,12.808-61.578l1.241-7.518l8.663,1.025
	c3.728,0.439,7.452,0.902,11.177,0.902c3.399,0,7.096-0.342,11.294-0.89l13.36-1.74l-3.583,11.869l-1.309,4.852
	c8.042-10.814,21.759-17.377,38.153-17.377c10.335,0,20.666,2.503,29.66,7.145l5.932,3.06l-5.845,30.916
	c-9.32-6.1-26.784-10.208-26.784-6.918c0,2.085,18.475,3.646,24.956,16.42c0.854,1.737,1.501,3.571,1.971,5.475
	c9.322-18.67,16.929-35.162,22.924-49.415l2.565-6.101l6.585,0.669c4.447,0.453,8.995,0.918,13.856,0.918
	c5.203,0,10.935-0.233,17.307-0.698l10.144-0.683l0.227,9.385c1.146,15.628,3.396,35.429,6.359,57.523
	c5.547-24.62,8.987-43.942,10.649-57.655l0.951-7.872h33.595c11.402,0,23.233,0.653,32.946,8.295
	c7.188,5.605,11.865,13.184,14.139,21.947c1.542-8.616,2.679-16.083,3.438-22.37l0.953-7.872h43.841h78.262
	c9.347,0,19.812,0.198,28.202,7.911c3.307,3.05,5.796,6.866,7.41,11.114c7.482-13.067,22.409-21.194,40.652-21.194
	c10.333,0,20.666,2.503,29.661,7.145l5.93,3.06l-6.076,30.916c-9.815-6.149-26.784-10.217-26.784-6.918
	c0,2.261,18.397,3.192,25.241,16.875c2.072,3.96,2.896,8.732,2.896,13.698c0,24.961-18.58,40.778-45.629,40.778
	c-4.585,0-9.273-0.479-13.938-1.413l-2.376,12.807h-11.071c-34.818,0-43.9-15.498-49.255-32.312
	c-1.411-4.433-2.266-7.262-2.876-9.377c-1.364,7.2-2.521,14.256-3.411,21.169l-1.137,8.809c0,0-16.655-1.968-25.547-1.968
	l-94.124-0.004l2.738-11.09c0.748-3.026,1.47-5.993,2.165-8.899c-0.953,1.207-1.956,2.365-3.006,3.465
	c-13.321,13.976-31.289,16.523-52.964,16.523h-20.05c0,0-30.612,0.342-35.054,0.895l-10.049,1.251v-10.127
	c0-3.354-0.101-6.71-0.298-10.109h-11.764c-2.164,4.897-4.003,9.382-5.605,13.411l-1.988,5.588c0,0-9.628-1.188-20.182-1.188
	c-29.45,0-21.043,2.568-45.104,2.568c-11.768,0-24.243-2.044-35.104-7.919l-5.769-3.122l-3.639-2.249
	c-2.462,3.157-5.514,6.028-9.445,8.471c-7.309,4.572-15.2,5.936-23.57,5.936c-8.319,0-15.771-1.456-21.972-4.316l-3.226,14.594
	h-10.296c-34.821,0-43.904-15.498-49.258-32.312c-1.411-4.433-2.265-7.262-2.875-9.377c-1.364,7.2-2.52,14.256-3.41,21.169
	l-1.139,8.809C321.232,357.873,309.753,355.618,297.223,355.618"/>
<path fill="#ED1C24" d="M294.922,270.227l-3.604,1.998c-5.019-4.944-11-7.971-18.186-7.971c-16.416,0-30.059,19.274-30.059,38.54
	c0,22.047,12.204,27.102,25.839,27.102c6.735,0,12.952-2.541,19.964-5.923l-4.506,20.934l-4.042,2.177
	c-7.773,3.369-15.658,5.116-23.528,5.116c-24.659,0-40.8-17.911-40.8-46.544c0-18.501,6.29-33.154,19.717-46.233
	c3.664-3.651,7.919-6.62,12.595-8.817c7.67-4.697,16.944-7.171,27.405-7.171c8.585,0,16.506,1.948,23.388,5.922L294.922,270.227z
	 M313.495,260.679h35.914c9.694,0,16.636,0.48,22.144,5.547c4.187,3.858,6.719,9.889,6.719,16.761
	c0,11.096-5.437,19.74-15.562,24.369c-1.654,1.044-3.476,1.955-5.455,2.725c0.819,2.316,3.508,9.956,4.823,14.389
	c8.576,28.891,22.604,33.097,29.713,33.097l-3.628,1.956h-8.263c-30.164,0-36.313-12.198-40.733-26.081
	c-4.257-13.372-3.299-11.721-6.274-21.005h-8.136c-2.347,11.127-4.291,21.932-5.642,32.414l-3.631,1.953
	c-3.966-0.481-7.711-0.963-11.455-0.963c-3.417,0-7.162,0.36-11.237,0.963c7.272-27.264,12.564-52.952,16.036-76.705
	c0.34-2.555,0.685-5.049,1.039-7.466L313.495,260.679z M328.698,293.358h12.449c4.123,0,7.426-0.292,9.921-1.065
	c1.473-1.365,2.204-3.277,2.204-5.904c0-5.668-3.305-6.753-11.016-6.753h-10.859L328.698,293.358z M396.771,260.831
	c4.075,0.483,8.152,0.964,12.227,0.964c3.747,0,7.822-0.36,12.45-0.964c-8.813,33.042-11.896,53.299-11.896,59.451
	c0,6.753,2.863,9.889,9.033,9.889c1.249,0,2.395-0.155,3.434-0.447c0.792-0.707,1.451-1.56,1.971-2.544
	c3.303-6.27,8.261-27.614,13.549-64.394l3.628-1.954c4.076,0.483,8.153,0.964,12.23,0.964c3.745,0,7.82-0.36,12.447-0.964
	c-8.813,31.955-10.686,52.456-12.999,59.088c-3.526,10.251-6.831,17.726-14.983,22.792c-1.098,0.687-2.225,1.284-3.385,1.801
	c-5.643,3.528-11.701,4.733-19.082,4.733c-20.821,0-32.168-9.767-32.168-26.769c0-10.008,5.95-29.423,9.917-59.691L396.771,260.831z
	 M536.869,264.659l-3.526,18.57l-3.628,1.953c-5.065-4.703-13.221-7.717-21.922-7.717c-3.16,0-5.868,0.467-8.07,1.271
	c-1.998,1.559-3.063,3.559-3.063,5.7c0,3.857,2.755,4.823,7.603,6.029c9.252,2.171,17.297,3.256,23.905,9.526
	c3.413,3.256,5.066,7.958,5.066,14.352c0,12.867-6.18,22.875-17.32,28.017c-5.944,3.706-13.694,5.771-22.993,5.771
	c-10.245,0-21.261-2.772-30.847-7.958l3.197-16.52l3.628-1.954c11.127,4.823,20.27,7.355,27.872,7.355
	c3.039,0,5.627-0.426,7.728-1.172c1.875-1.5,2.855-3.436,2.855-5.555c0-2.534-1.763-4.462-5.068-5.548
	c-9.473-3.135-16.744-3.739-20.601-5.908c-7.492-4.222-10.907-9.646-10.907-17.968c0-12.734,6.835-23.254,18.342-28.612
	c5.941-3.671,13.475-5.781,22.191-5.781C520.236,258.508,529.158,260.679,536.869,264.659 M572.367,259.713
	c4.738,0.483,9.586,0.966,14.764,0.966c5.396,0,11.346-0.241,17.956-0.723c0.551,22.67,3.525,51.009,9.034,84.894l-3.63,1.953
	c-3.898-0.619-7.234-0.963-10.465-0.963c-3.855,0-8.371,0.36-13.221,0.963c0-6.27-0.33-12.54-0.991-19.054h-23.049
	c-2.89,6.336-5.252,12.066-7.253,17.101l-3.63,1.953c-3.966-0.603-7.602-0.963-10.904-0.963c-3.967,0-8.594,0.36-13.662,0.963
	c18.179-33.884,31.838-62.344,41.423-85.134L572.367,259.713z M582.583,282.644l-11.647,26.631h13.632L582.583,282.644z
	 M640.694,260.679h25.668c11.456,0,20.382,0.845,27.432,6.391c8.042,6.27,12.339,16.038,12.339,28.218
	c0,13.625-4.958,26.409-13,34.851c-3.352,3.513-7.1,6.181-11.337,8.187c-9.7,5.914-22.181,7.515-38.782,7.515H620.43
	c9.131-36.975,14.418-64.928,16.627-83.136L640.694,260.679z M659.357,279.636l-9.52,47.245h6.278c4.072,0,7.788-0.761,11.079-2.188
	c7.795-5.101,12.394-14.583,12.394-26.605c0-11.577-6.721-18.451-18.617-18.451H659.357z M785.364,259.713l-3.746,18.933
	l-3.628,1.954c-0.682-0.056-1.362-0.125-2.041-0.208c-8.018-0.757-15.395-0.757-22.305-0.757h-9.212l-2.364,11.792h11.128
	c7.491,0,15.422-0.361,23.687-0.963l-3.638,18.933l-3.628,1.952c-8.813-0.964-16.856-0.964-24.346-0.964h-7.111l-3.251,16.495
	h14.431c7.492,0,15.424-0.36,23.688-0.963l-3.748,18.934l-3.628,1.953c-8.813-0.963-16.965-0.963-24.347-0.963h-35.804
	c9.145-37.022,14.433-64.999,16.636-83.208l3.628-1.953h35.915C769.171,260.679,777.102,260.317,785.364,259.713 M767.503,311.35
	c0,0,0.104-0.283,0.134-0.699L767.503,311.35z M941.766,264.659l-3.525,18.57l-3.63,1.953c-5.066-4.703-13.219-7.717-21.923-7.717
	c-3.16,0-5.868,0.467-8.069,1.271c-2.001,1.559-3.063,3.559-3.063,5.7c0,3.857,2.754,4.823,7.604,6.029
	c9.253,2.171,17.293,3.256,23.903,9.526c3.416,3.256,5.068,7.958,5.068,14.352c0,12.867-6.182,22.875-17.32,28.017
	c-5.945,3.706-13.694,5.771-22.993,5.771c-10.246,0-21.264-2.772-30.847-7.958l3.195-16.52l3.628-1.954
	c11.127,4.823,20.27,7.355,27.871,7.355c3.041,0,5.627-0.426,7.728-1.172c1.875-1.5,2.855-3.436,2.855-5.555
	c0-2.534-1.763-4.462-5.068-5.548c-9.473-3.135-16.744-3.739-20.601-5.908c-7.489-4.222-10.906-9.646-10.906-17.968
	c0-12.734,6.836-23.254,18.343-28.612c5.943-3.671,13.472-5.781,22.192-5.781C925.129,258.508,934.054,260.679,941.766,264.659
	 M804.028,260.679h35.912c9.695,0,16.637,0.48,22.145,5.547c4.185,3.858,6.719,9.889,6.719,16.761
	c0,11.096-5.437,19.74-15.563,24.369c-1.654,1.044-3.475,1.955-5.454,2.725c0.819,2.316,3.508,9.956,4.824,14.389
	c8.576,28.891,22.603,33.097,29.712,33.097l-3.63,1.956h-8.261c-30.166,0-36.314-12.198-40.733-26.081
	c-4.258-13.372-3.301-11.721-6.273-21.005h-8.136c-2.347,11.127-4.291,21.932-5.643,32.414l-3.629,1.953
	c-4.05-0.492-7.753-0.963-11.457-0.963c-3.415,0-7.163,0.36-11.237,0.963c8.041-30.147,13.659-58.363,17.075-84.171L804.028,260.679
	z M819.23,293.358h12.449c4.123,0,7.426-0.292,9.919-1.065c1.474-1.365,2.206-3.277,2.206-5.904c0-5.668-3.306-6.753-11.018-6.753
	h-10.856L819.23,293.358z"/>
<path fill="#FFFFFF" d="M309.868,262.632h35.914c9.692,0,16.633,0.482,22.142,5.547c4.186,3.86,6.722,9.889,6.722,16.763
	c0,13.023-7.494,22.669-21.263,26.407c0,0,3.503,9.806,5.067,15.074c8.578,28.893,22.603,33.099,29.713,33.099h-8.262
	c-30.165,0-36.312-12.197-40.732-26.078c-4.258-13.375-3.302-11.723-6.277-21.008h-11.347c-2.533,11.818-4.625,23.274-6.059,34.368
	c-3.966-0.483-7.711-0.963-11.458-0.963c-3.414,0-7.159,0.359-11.236,0.963C300.833,316.658,306.452,288.44,309.868,262.632
	 M325.069,295.311h12.449c10.575,0,15.753-1.928,15.753-8.922c0-5.669-3.304-6.753-11.017-6.753h-14.1L325.069,295.311z
	 M393.142,262.784c4.076,0.483,8.152,0.966,12.227,0.966c3.747,0,7.822-0.362,12.45-0.966
	c-8.814,33.042-11.897,53.301-11.897,59.451c0,6.753,2.864,9.889,9.033,9.889c4.297,0,7.381-1.809,9.034-4.944
	c3.305-6.27,8.263-27.615,13.549-64.395c4.076,0.483,8.153,0.966,12.23,0.966c3.745,0,7.819-0.362,12.447-0.966
	c-8.813,31.957-10.686,52.456-13,59.088c-3.525,10.251-6.83,17.726-14.983,22.793c-5.397,3.376-11.456,4.58-18.838,4.58
	c-20.82,0-32.168-9.768-32.168-26.769C383.225,312.467,389.174,293.053,393.142,262.784 M533.241,266.612l-3.526,18.569
	c-5.067-4.703-13.219-7.717-21.922-7.717c-9.365,0-14.762,4.102-14.762,8.925c0,3.857,2.753,4.823,7.601,6.029
	c9.254,2.171,17.297,3.256,23.905,9.528c3.415,3.256,5.07,7.958,5.07,14.35c0,19.052-13.554,31.834-36.686,31.834
	c-10.247,0-21.264-2.772-30.848-7.958l3.195-16.521c11.127,4.823,20.269,7.357,27.871,7.357c9.145,0,14.213-3.86,14.213-8.684
	c0-2.531-1.763-4.461-5.068-5.547c-9.475-3.135-16.746-3.737-20.601-5.909c-7.493-4.219-10.907-9.646-10.907-17.967
	c0-18.572,14.541-32.438,36.906-32.438C516.606,260.463,525.528,262.632,533.241,266.612 M568.737,261.668
	c4.737,0.483,9.585,0.964,14.764,0.964c5.398,0,11.348-0.239,17.958-0.723c0.549,22.67,3.525,51.009,9.032,84.894
	c-3.744-0.604-7.161-0.963-10.467-0.963c-3.854,0-8.371,0.359-13.219,0.963c0-6.27-0.33-12.54-0.991-19.052h-25.776
	c-3.308,7.113-5.951,13.504-8.153,19.052c-3.966-0.604-7.604-0.963-10.906-0.963c-3.967,0-8.594,0.359-13.662,0.963
	C545.493,312.918,559.154,284.459,568.737,261.668 M582.179,277.224l-14.871,34.007h17.405L582.179,277.224z M637.066,262.632
	h25.668c11.456,0,20.38,0.845,27.43,6.391c8.042,6.272,12.339,16.04,12.339,28.218c0,13.626-4.956,26.409-13,34.851
	c-10.575,11.093-25.116,13.749-46.487,13.749H620.43C629.574,308.818,634.862,280.841,637.066,262.632 M656.124,279.636l-9.915,49.2
	h6.279c16.416,0,27.101-12.419,27.101-30.75c0-11.576-6.721-18.45-18.619-18.45H656.124z M781.736,261.668l-3.748,18.931
	c-8.812-0.963-16.854-0.963-24.346-0.963h-12.447l-2.755,13.748h11.128c7.491,0,15.422-0.361,23.685-0.965l-3.636,18.931
	c-8.813-0.963-16.856-0.963-24.346-0.963h-10.356l-3.634,18.45h14.431c7.492,0,15.422-0.362,23.686-0.963l-3.746,18.931
	c-8.812-0.963-16.967-0.963-24.347-0.963h-35.804c9.145-37.022,14.431-65,16.634-83.208h35.917
	C765.541,262.632,773.474,262.272,781.736,261.668 M938.136,266.612l-3.525,18.569c-5.068-4.703-13.219-7.717-21.923-7.717
	c-9.364,0-14.761,4.102-14.761,8.925c0,3.857,2.752,4.823,7.602,6.029c9.253,2.171,17.295,3.256,23.905,9.528
	c3.414,3.256,5.066,7.958,5.066,14.35c0,19.052-13.55,31.834-36.686,31.834c-10.244,0-21.26-2.772-30.845-7.958l3.193-16.521
	c11.129,4.823,20.271,7.357,27.871,7.357c9.146,0,14.213-3.86,14.213-8.684c0-2.531-1.763-4.461-5.066-5.547
	c-9.477-3.135-16.746-3.737-20.603-5.909c-7.491-4.219-10.904-9.646-10.904-17.967c0-18.572,14.54-32.438,36.903-32.438
	C921.501,260.463,930.426,262.632,938.136,266.612 M800.398,262.632h35.914c9.693,0,16.635,0.482,22.143,5.547
	c4.187,3.86,6.721,9.889,6.721,16.763c0,13.023-7.491,22.669-21.261,26.407c0,0,3.502,9.806,5.065,15.074
	c8.576,28.893,22.603,33.099,29.712,33.099h-8.261c-30.168,0-36.314-12.197-40.733-26.078c-4.258-13.375-3.301-11.723-6.275-21.008
	h-11.347c-2.533,11.818-4.627,23.274-6.059,34.368c-3.967-0.483-7.711-0.963-11.459-0.963c-3.413,0-7.161,0.359-11.235,0.963
	C791.366,316.658,796.984,288.44,800.398,262.632 M815.603,295.311h12.447c10.576,0,15.753-1.928,15.753-8.922
	c0-5.669-3.304-6.753-11.016-6.753h-14.101L815.603,295.311z M248.553,250.487c6.825-3.293,14.627-4.996,23.345-4.996
	c8.585,0,16.861,1.798,23.741,5.771l-4.323,20.96c-4.648-4.572-10.563-7.97-18.184-7.97c-11.813,0-19.383,5.084-25.519,13.482
	c-5.175,7.042-8.362,17.09-8.362,27.115c0,22.086,12.204,27.103,25.837,27.103c6.737,0,12.954-2.542,19.966-5.924l-4.576,20.984
	c-7.772,3.369-15.808,5.186-23.677,5.186c-24.659,0-40.8-17.912-40.8-46.542c0-18.504,6.29-33.154,19.717-46.235
	C239.384,255.77,243.875,252.682,248.553,250.487"/>
<path d="M893.922,369.583h6.044c0.409,0,0.663,0.02,0.742,0.02c2.456,0,3.958,1.462,3.958,3.899c0,1.599-0.742,2.769-2.01,3.258
	c1.328,0.429,1.601,1.286,1.678,2.806l0.117,2.009c0.039,0.819,0.059,1.326,0.586,1.62v0.409h-2.615
	c-0.271-0.507-0.311-1.112-0.35-1.853l-0.077-1.677c-0.079-1.463-0.371-2.242-2.225-2.242h-0.446h-3.083v5.771h-2.319V369.583z
	 M896.222,371.552v4.311h3.334c1.834,0,2.751-0.546,2.751-2.185c0-1.619-0.936-2.126-2.691-2.126H896.222z M899.149,363.406
	c7.285,0,13.188,5.904,13.188,13.188s-5.903,13.188-13.188,13.188c-7.282,0-13.186-5.904-13.186-13.188
	S891.867,363.406,899.149,363.406 M899.149,365.151c-6.316,0-11.44,5.122-11.44,11.442s5.124,11.442,11.44,11.442
	c6.321,0,11.443-5.122,11.443-11.442S905.471,365.151,899.149,365.151"/>
</svg>
