<?xml version="1.0" encoding="utf-8"?>
<!-- Generator: Adobe Illustrator 15.1.0, SVG Export Plug-In  -->
<!DOCTYPE svg PUBLIC "-//W3C//DTD SVG 1.1//EN" "http://www.w3.org/Graphics/SVG/1.1/DTD/svg11.dtd" [
	<!ENTITY ns_flows "http://ns.adobe.com/Flows/1.0/">
]>
<svg version="1.1"
	 xmlns="http://www.w3.org/2000/svg" xmlns:xlink="http://www.w3.org/1999/xlink" xmlns:a="http://ns.adobe.com/AdobeSVGViewerExtensions/3.0/"
	 x="0px" y="0px" width="1000px" height="1000px" viewBox="0 -73.592 1000 1000"
	 overflow="visible" enable-background="new 0 -73.592 1000 1000" xml:space="preserve">
<defs>
</defs>
<path d="M467.367,124.243c-12.126,1.509-24.037,3.126-35.678,4.887l4.204,135.022l149.609,78.271
	c4.33-2.083,8.678-4.239,13.061-6.395l-125.052-85.062l-20.605,7.096L467.367,124.243z"/>
<path d="M395.005,135.525c-12.126,2.408-23.624,5.084-34.402,8.048l-1.581,153.543l155.25,79.26
	c5.784-2.73,11.731-5.533,17.803-8.407l-134.663-88.565l-21.432,9.593L395.005,135.525z"/>
<path d="M428.635,129.615c-10.509,1.635-20.785,3.413-30.666,5.317l-0.557,144.472l153.957,79.439
	c5.049-2.407,10.186-4.851,15.378-7.33L435.893,264.17l-21.503,7.563L428.635,129.615z"/>
<path d="M531.482,117.219c-9.467,0.934-18.935,1.886-28.366,2.91l6.719,119.231l-20.623,6.665l10.725-125.555
	c-9.898,1.078-19.761,2.192-29.498,3.396l3.072,127.082l145.423,74.876c4.15-2.12,8.336-4.258,12.504-6.414L510.5,239.343
	l136.98,71.679c4.096-2.174,8.155-4.366,12.215-6.575l-114.236-76.871l-20.82,7.096L531.482,117.219z"/>
<path d="M564.285,114.04c-9.736,0.934-19.562,1.886-29.426,2.838l10.617,110.698l128.699,68.895
	c3.664-2.048,7.329-4.132,10.977-6.216l-108.776-73.439l-17.929,6.359L564.285,114.04z"/>
<path d="M185.107,224.271c-18.324,11.299-33.342,21.396-43.87,28.761l-4.545,183.167c0,0-35.229,25.259-48.451,36.433
	c-13.24,11.138-37.51,33.953-37.51,33.953l0.018,45.253c0,0,29.318-40.546,49.852-59.805c20.03-18.772,45.863-39.935,45.863-39.935
	l-4.743-6.827l163.388,73.816c2.605-2.532,9-8.641,18.162-16.994l-141.669-92.787l-22.096,17.713L185.107,224.271z"/>
<path d="M229.677,198.401c-14.587,7.922-28.133,15.827-40.367,23.3l-7.707,187.623l165.67,71.643
	c5.946-5.084,12.324-10.401,19.042-15.827l-138.92-90.146l-22.15,16.132L229.677,198.401z"/>
<path d="M597.412,110.842c-9.862,0.988-19.887,1.94-30.036,2.91l9,103.063l122.734,65.301c3.935-2.317,7.833-4.671,11.694-7.042
	l-102.613-69.038l-19.258,6.827L597.412,110.842z"/>
<path d="M357.37,144.454l-2.443,0.683c-12.018,3.485-23.947,7.545-35.696,11.928l-3.88,162.867l159.274,75.397
	c6.072-2.964,12.467-6.054,19.186-9.251l-134.806-88.979l-22.959,11.677L357.37,144.454z"/>
<path d="M316.374,158.143c-14.012,5.335-27.755,11.192-41.049,17.336l-3.988,170.394l-22.438,14.354l23.354-183.329
	c-13.725,6.414-26.947,13.132-39.486,19.869l-5.372,178.209l161.143,72.864c5.856-4.384,11.856-8.731,17.947-12.988l-135.148-88.53
	l158.609,73.08c6.288-3.898,12.593-7.563,18.863-10.922l1.186-0.629L315.35,319.932l-22.707,12.971L316.374,158.143z"/>
<path d="M791.305,69.254c-8.281,3.431-16.977,6.754-26.066,9.97l0.251,58.978l76.152,16.474c4.239-6.413,8.282-12.845,12.072-19.222
	l-57.811-16.312l-14.856,9.647L791.305,69.254z"/>
<path d="M762.382,80.266c-8.875,3.09-18.145,6.036-27.737,8.803l-0.575,65.463l88.009,27.091c3.593-4.545,7.061-9.144,10.401-13.761
	l-66.99-29.642l-15.378,8.066L762.382,80.266z"/>
<path d="M846.258,42.756c-7.078,3.934-14.73,7.958-22.904,12l-0.449,43.87l-14.803,11.659l12.594-54.235
	c-8.372,4.06-17.283,8.138-26.75,12.108l1.977,50.984l64.941,3.826c3.611-6.503,6.988-12.97,10.133-19.294l-47.211-5.533
	l53.049-6.629c2.856-6.108,5.479-12.036,7.904-17.785l-36.037,2.281l-11.012,10.06L846.258,42.756z"/>
<path d="M732.111,89.805c-4.24,1.222-8.533,2.389-12.916,3.521c-5.084,1.33-10.546,2.551-16.349,3.719l-0.251,71.93l-0.107,0.054
	l99.074,36.324c3.432-3.647,6.809-7.348,10.042-11.102l-77.535-39.72l-15.396,7.258L732.111,89.805z"/>
<path d="M909.512,0c0,0-4.293,3.845-12.575,10.096l-3.378,15.971l-6.754,8.515l3.683-19.743c-4.348,3.126-9.396,6.611-15.162,10.384
	l-3.593,27.09l-7.438,8.3l7.096-32.839c-6.664,4.24-14.21,8.803-22.527,13.509l-0.18,34.744l41.229-15.019
	c2.191-5.569,4.15-10.886,5.946-15.88l-21.288,4.186l24.791-14.354C906.512,13.617,909.512,0,909.512,0"/>
<path d="M631.365,107.339c-9.898,1.096-20.156,2.138-30.629,3.18l7.455,95.5l118.1,59.319c3.97-2.569,7.922-5.138,11.785-7.725
	l-96.758-63.99l-19.007,7.294L631.365,107.339z"/>
<polygon points="671.014,182.107 671.049,182.089 670.834,182.018 "/>
<path d="M668.086,102.793c-10.707,1.491-22.025,2.893-33.828,4.204l7.061,86.625l110.033,54.882
	c2.713-1.922,5.443-3.862,8.084-5.802l4.293-3.198l-92.715-57.397l-16.492,6.431L668.086,102.793z"/>
<polygon points="702.451,169.047 702.47,169.029 702.361,168.993 "/>
<path d="M699.793,97.62c-8.803,1.689-18.307,3.252-28.438,4.707l0.161,79.583l-0.468,0.18l107.07,45.72
	c3.629-3.125,7.186-6.341,10.635-9.611l-86.303-49.169l-15.934,6.916L699.793,97.62z"/>
<path fill-rule="evenodd" clip-rule="evenodd" d="M992.975,722.896c0,9.468-6.809,15.881-14.945,15.881
	c-8.301,0-14.93-6.413-14.93-15.881c0-9.484,6.629-15.898,14.93-15.898C986.166,706.997,992.975,713.411,992.975,722.896
	 M978.029,744.005c11.317,0,21.971-7.689,21.971-21.109c0-13.438-10.653-21.126-21.971-21.126c-11.372,0-21.953,7.688-21.953,21.126
	C956.076,736.315,966.657,744.005,978.029,744.005 M974.633,720.669v-5.192h3.234c1.67,0,4.186,0.108,4.186,2.335
	c0,2.354-1.078,2.857-3,2.857H974.633z M974.633,724.782h1.941l5.191,9.539h5.246l-5.803-9.916c3.97-0.18,6.413-1.742,6.413-6.019
	c0-5.407-3.629-7.024-9.647-7.024h-8.587v22.959h5.245V724.782z"/>
<path d="M731.447,782.61c0-23.588-8.282-39.02-47.158-39.02c-37.869,0-48.162,12.288-48.162,54.164
	c0.125,38.731,7.957,54.181,48.307,54.181c39.629,0,47.014-18.306,47.014-40.888h-38.589v11.139c0,5.156-2.622,8.568-8.425,8.568
	s-8.408-3.412-8.408-8.568v-48.882c0-5.138,2.605-8.587,8.408-8.587s8.425,3.449,8.425,8.587v9.306H731.447z"/>
<path d="M370.017,767.88v18.862h7.833c4.958,0,7.994-4.294,7.994-9.432s-3.036-9.431-7.994-9.431H370.017z M370.017,807.042v20.588
	h7.833c5.82,0,8.875-5.426,8.875-11.713c0-6.288-3.341-8.875-8.138-8.875H370.017z M332.021,848.792v-88.655
	c-0.251-2.82-1.563-4.509-3.288-5.497l-2.838-1.042l-1.868-0.288v-6.305h7.994l54.253-0.287c29.318,0,38.175,8.586,38.175,24.736
	c0,16.725-10.024,22.707-24.953,25.295c15.935,2.155,26.983,8.299,26.983,25.725c0,12.881-7.401,26.318-33.091,26.318H332.021z"/>
<path d="M442.234,848.792v-81.506l-0.072-6.342c-0.036-3.287-1.438-5.209-3.324-6.27L436,753.634l-1.886-0.287l0.018-6.307h8.102
	l39.181-0.322v77.768h33.684v24.307H442.234z"/>
<path d="M119.733,848.792v-81.506l-0.072-6.342c-0.036-3.287-1.455-5.209-3.305-6.27l-2.856-1.041l-1.868-0.287v-6.307h8.102
	l39.181-0.322v77.768h33.684v24.307H119.733z"/>
<path d="M204.113,848.792v-81.506l-0.072-6.342c-0.036-3.287-1.437-5.209-3.306-6.27l-2.856-1.041l-1.851-0.287v-6.307h8.084
	l39.181-0.322v77.768h33.684v24.307H204.113z"/>
<path d="M955.483,774.364c0-16.994-8.39-31.672-46.169-31.672c-30.073,0-46.008,10.762-46.008,35.732
	c0,37.941,55.151,22.959,55.151,45.918c0,5.102-3.826,9.018-9.144,9.018c-3.377,0-5.3-1.455-6.468-3.772
	c-1.204-2.479-1.491-5.839-1.635-9.898h-39.073c-1.796,29.804,24.486,33.126,49.996,33.126c25.223,0,45.863-8.568,45.863-36.037
	c0-37.617-55.457-26.156-55.457-45.468c0-3.916,2.803-7.688,7.078-7.688c4.133,0,6.486,1.006,7.672,2.91
	c1.167,1.868,1.49,4.49,1.49,7.832H955.483z"/>
<path d="M523.793,848.774l23.624-88.387c0.647-3.144-0.071-5.191-1.868-6.197l-2.246-0.862l-1.886-0.306v-6.305h9.665h53.696
	l26.695,102.057H591.43l-2.91-15.988h-21.484l-2.893,15.988H523.793z M578.209,767.808l-7.977,45.234h15.521L578.209,767.808z"/>
<path d="M0,848.774l23.623-88.387c0.646-3.144-0.071-5.191-1.868-6.197l-2.245-0.862l-1.887-0.306l0.018-6.305h9.647h53.696
	l26.695,102.057H67.618l-2.892-15.988H43.258l-2.91,15.988H0z M54.415,767.808l-7.977,45.234h15.521L54.415,767.808z"/>
<path d="M737.949,746.231l47.319-0.143v28.42l27.881-28.312h45.81l-39.611,38.893l37.905,63.092h-41.499l-21.971-37.869l-8.479,8.39
	v29.444h-39.163v-81.578l-0.18-6.27c-0.036-3.287-1.437-5.191-3.306-6.27l-2.855-1.023l-1.852-0.287V746.231z"/>
<path d="M221.827,601.491h53.427l16.617,45.684h0.287l15.037-45.684h45.81v101.967h-38.66v-51.971h-0.27l-12.611,37.078H281.99
	l-13.617-36.791h-0.27v51.684h-38.552v-90.074c0-2.568-1.275-4.725-4.563-5.012l-3.162-0.288V601.491z"/>
<path d="M416.743,622.546h-0.575l-7.15,43.689h15.593L416.743,622.546z M387.371,615.396c1.024-3.862-0.414-6.736-3.719-7.042
	l-3.162-0.27v-6.593h62.732l28.51,101.984h-41.534l-2.875-16.041h-21.611L403,703.476h-40.833L387.371,615.396z"/>
<path d="M514.471,633.433v38.533c0,5.731,2.73,10.007,8.316,10.007c5.588,0,8.301-4.275,8.301-10.007v-38.533
	c0-5.73-2.713-10.024-8.301-10.024C517.201,623.408,514.471,627.702,514.471,633.433 M475.379,653.624
	c0-40.097,9.306-54.127,47.408-54.127c38.104,0,47.409,14.03,47.409,54.127c0,37.528-9.162,51.99-47.409,51.99
	C484.541,705.614,475.379,691.152,475.379,653.624"/>
<path d="M628.222,645.882c7.438,0,11.175-4.006,11.175-10.869c0-8.317-4.15-11.748-12.181-11.748h-5.587v22.617H628.222z
	 M677.768,691.583c0,2.57,1.294,4.726,4.582,4.994l3.144,0.307v6.574H647.84c-6.307,0-8.731-4.725-8.731-10.168v-10.15
	c0-8.892-3.288-13.329-10.887-13.329h-6.593v33.647h-38.516v-90.074c0-2.587-1.294-4.725-4.582-5.012l-3.161-0.288v-6.593h69.612
	c21.055,0,33.217,9.306,33.217,27.647c0,14.749-7.006,22.905-22.33,26.354v0.557c14.605,2.156,21.898,8.174,21.898,19.635V691.583z"
	/>
<path d="M694.512,703.458v-90.074c0-2.568-1.275-4.725-4.582-5.012l-3.143-0.288v-6.593h46.258v101.967H694.512z"/>
</svg>
