<?xml version="1.0" encoding="utf-8"?>
<!-- Generator: Adobe Illustrator 15.1.0, SVG Export Plug-In  -->
<!DOCTYPE svg PUBLIC "-//W3C//DTD SVG 1.1//EN" "http://www.w3.org/Graphics/SVG/1.1/DTD/svg11.dtd" [
	<!ENTITY ns_flows "http://ns.adobe.com/Flows/1.0/">
]>
<svg version="1.1"
	 xmlns="http://www.w3.org/2000/svg" xmlns:xlink="http://www.w3.org/1999/xlink" xmlns:a="http://ns.adobe.com/AdobeSVGViewerExtensions/3.0/"
	 x="0px" y="0px" width="1000px" height="1000px" viewBox="0 -145.833 1000 1000"
	 overflow="visible" enable-background="new 0 -145.833 1000 1000" xml:space="preserve">
<defs>
</defs>
<path d="M467.339,124.23c-12.116,1.506-24.051,3.125-35.662,4.896l4.18,135.026l149.613,78.281c4.33-2.111,8.683-4.25,13.062-6.415
	l-125.045-85.066l-20.61,7.1L467.339,124.23z"/>
<path d="M394.976,135.521c-12.122,2.415-23.626,5.08-34.391,8.03l-1.593,153.551l155.252,79.272
	c5.787-2.731,11.722-5.528,17.807-8.399l-134.664-88.587l-21.438,9.603L394.976,135.521z"/>
<path d="M428.614,129.612c-10.526,1.638-20.785,3.399-30.664,5.321l-0.563,144.456l153.958,79.455
	c5.055-2.399,10.183-4.849,15.362-7.334l-130.849-87.356l-21.501,7.575L428.614,129.612z"/>
<path d="M531.454,117.209c-9.455,0.934-18.931,1.904-28.375,2.914l6.727,119.242l-20.623,6.652l10.728-125.551
	c-9.901,1.071-19.757,2.192-29.5,3.385l3.077,127.102l145.416,74.861c4.169-2.115,8.343-4.252,12.52-6.412l-120.938-80.056
	l136.97,71.662c4.083-2.168,8.158-4.359,12.222-6.566l-114.234-76.872l-20.836,7.106L531.454,117.209z"/>
<path d="M564.262,114.038c-9.739,0.928-19.564,1.87-29.438,2.839l10.617,110.694l128.707,68.893
	c3.674-2.056,7.331-4.126,10.969-6.211l-108.765-73.441l-17.917,6.349L564.262,114.038z"/>
<path d="M185.083,224.256c-18.327,11.31-33.353,21.418-43.882,28.77l-4.54,183.166c0,0-35.219,25.263-48.458,36.419
	c-13.239,11.162-37.501,33.976-37.501,33.976l0.01,45.238c0,0,29.328-40.542,49.866-59.791
	c20.022-18.767,45.856-39.943,45.856-39.943l-4.74-6.832l163.388,73.839c2.615-2.542,8.987-8.655,18.153-16.998l-141.673-92.792
	l-22.092,17.701L185.083,224.256z"/>
<path d="M229.652,198.403c-14.589,7.918-28.141,15.817-40.376,23.281l-7.713,187.624l165.671,71.658
	c5.952-5.074,12.323-10.391,19.049-15.819L227.368,374.98l-22.143,16.132L229.652,198.403z"/>
<path d="M597.394,110.842c-9.854,0.97-19.891,1.931-30.051,2.901l9.01,103.068l122.741,65.302c3.927-2.33,7.825-4.678,11.69-7.046
	l-102.615-69.042l-19.26,6.836L597.394,110.842z"/>
<path d="M357.346,144.446c-0.81,0.229-1.654,0.444-2.454,0.677c-12.007,3.498-23.938,7.54-35.705,11.943l-3.864,162.851
	l159.286,75.414c6.06-2.97,12.45-6.054,19.18-9.262l-134.796-88.967l-22.959,11.669L357.346,144.446z"/>
<path d="M316.353,158.146c-14.017,5.331-27.759,11.177-41.061,17.322l-3.997,170.401l-22.422,14.349l23.355-183.327
	c-13.736,6.424-26.964,13.127-39.488,19.861l-5.372,178.229l161.142,72.862c5.859-4.396,11.856-8.743,17.937-12.985L271.31,346.326
	l158.595,73.074c6.302-3.888,12.613-7.562,18.874-10.924c0.378-0.204,0.795-0.418,1.179-0.622l-134.635-87.937l-22.692,12.999
	L316.353,158.146z"/>
<path d="M791.287,69.253c-8.274,3.422-16.986,6.759-26.06,9.974l0.236,58.982l76.147,16.454c4.262-6.406,8.283-12.832,12.082-19.229
	l-57.801-16.285l-14.871,9.632L791.287,69.253z"/>
<path d="M762.353,80.259c-8.862,3.085-18.131,6.025-27.717,8.801l-0.591,65.46l87.999,27.102c3.601-4.549,7.073-9.142,10.413-13.765
	l-66.993-29.649l-15.373,8.076L762.353,80.259z"/>
<path d="M846.243,42.743c-7.079,3.942-14.731,7.969-22.918,12.006l-0.446,43.863l-14.808,11.655l12.596-54.225
	c-8.371,4.068-17.287,8.125-26.748,12.098l1.974,51.009l64.948,3.825c3.608-6.518,6.985-12.969,10.134-19.303l-47.204-5.533
	l53.054-6.63c2.84-6.1,5.466-12.045,7.891-17.794l-36.044,2.294l-11.009,10.055L846.243,42.743z"/>
<path d="M732.095,89.803c-4.245,1.207-8.542,2.39-12.926,3.521c-5.08,1.31-10.543,2.542-16.348,3.708l-0.252,71.942l-0.114,0.048
	l99.082,36.331c3.447-3.646,6.801-7.344,10.052-11.092l-77.544-39.74l-15.398,7.257L732.095,89.803z"/>
<path d="M909.484,0c0,0-4.279,3.84-12.56,10.083l-3.387,15.981l-6.756,8.504l3.678-19.732c-4.339,3.118-9.403,6.613-15.163,10.381
	l-3.587,27.078l-7.442,8.298l7.107-32.836c-6.664,4.26-14.203,8.815-22.522,13.515l-0.182,34.735l41.224-15.014
	c2.184-5.565,4.163-10.875,5.946-15.875l-21.282,4.175l24.797-14.349C906.483,13.607,909.484,0,909.484,0z"/>
<path d="M631.349,107.324c-9.913,1.095-20.167,2.149-30.627,3.188l7.447,95.513l118.104,59.303
	c3.978-2.556,7.908-5.127,11.781-7.721l-96.76-63.979l-19.021,7.279L631.349,107.324z"/>
<polygon points="670.982,182.105 671.022,182.091 670.82,182.006 "/>
<path d="M668.063,102.786c-10.702,1.496-22.023,2.887-33.836,4.211l7.067,86.63l110.034,54.868c2.723-1.922,5.432-3.849,8.087-5.79
	c1.442-1.055,2.862-2.129,4.279-3.207l-92.713-57.392l-16.486,6.429L668.063,102.786z"/>
<polygon points="702.433,169.034 702.455,169.022 702.342,168.981 "/>
<path d="M699.77,97.611c-8.794,1.699-18.31,3.26-28.436,4.714l0.165,79.581l-0.477,0.185l107.08,45.716
	c3.629-3.136,7.173-6.339,10.623-9.609l-86.293-49.165l-15.949,6.913L699.77,97.611z"/>
<path fill-rule="evenodd" clip-rule="evenodd" d="M974.637,580.295h1.954l5.181,9.532h5.239l-5.795-9.919
	c3.959-0.17,6.409-1.731,6.409-6.022c0-5.403-3.623-7.025-9.643-7.025h-8.581v22.967h5.235V580.295z M974.637,576.175v-5.186h3.234
	c1.673,0,4.18,0.108,4.18,2.337c0,2.343-1.059,2.849-3.007,2.849H974.637z M978.039,599.526c11.314,0,21.961-7.689,21.961-21.126
	c0-13.434-10.646-21.126-21.961-21.126c-11.373,0-21.961,7.692-21.961,21.126C956.078,591.837,966.666,599.526,978.039,599.526z
	 M992.978,578.4c0,9.476-6.801,15.89-14.938,15.89c-8.306,0-14.939-6.414-14.939-15.89c0-9.479,6.634-15.887,14.939-15.887
	C986.177,562.514,992.978,568.922,992.978,578.4z"/>
<path d="M731.455,638.11c0-23.588-8.271-39.023-47.161-39.023c-37.873,0-48.173,12.289-48.173,54.178
	c0.143,38.736,7.979,54.178,48.317,54.178c39.614,0,47.017-18.301,47.017-40.887h-38.6v11.151c0,5.146-2.61,8.575-8.417,8.575
	c-5.804,0-8.413-3.43-8.413-8.575v-48.891c0-5.143,2.609-8.575,8.413-8.575c5.807,0,8.417,3.433,8.417,8.575v9.294H731.455z"/>
<path d="M332.011,704.296v-88.649c-0.229-2.822-1.553-4.512-3.278-5.5c-0.912-0.52-1.908-0.832-2.85-1.031
	c-0.637-0.136-1.27-0.224-1.863-0.296l0.001-6.317h7.989l54.269-0.275c29.314,0,38.163,8.581,38.163,24.732
	c0,16.724-10.011,22.728-24.957,25.3c15.959,2.146,26.99,8.295,26.99,25.734c0,12.866-7.4,26.303-33.084,26.303H332.011z
	 M370.028,662.553v20.583h7.835c5.807,0,8.853-5.429,8.853-11.722c0-6.289-3.338-8.861-8.125-8.861H370.028z M370.028,623.387
	v18.866h7.835c4.934,0,7.982-4.288,7.982-9.434c0-5.147-3.048-9.433-7.982-9.433H370.028z"/>
<path d="M442.229,704.296v-81.494l-0.077-6.352c-0.037-3.294-1.438-5.193-3.311-6.264c-0.913-0.525-1.909-0.832-2.852-1.035
	c-0.639-0.135-1.271-0.227-1.861-0.297l0.003-6.312h8.098l39.18-0.315v77.767h33.689v24.303H442.229z"/>
<path d="M119.732,704.296v-81.494l-0.08-6.352c-0.037-3.294-1.439-5.193-3.312-6.264c-0.913-0.525-1.908-0.832-2.849-1.035
	c-0.638-0.135-1.271-0.227-1.861-0.297l0.001-6.312h8.101l39.18-0.315v77.767h33.687v24.303H119.732z"/>
<path d="M204.114,704.296v-81.494l-0.077-6.352c-0.037-3.294-1.44-5.193-3.312-6.264c-0.913-0.525-1.908-0.832-2.851-1.035
	c-0.639-0.135-1.271-0.227-1.863-0.297l0.001-6.312h8.101l39.18-0.315v77.767h33.689v24.303H204.114z"/>
<path d="M955.496,629.872c0-17.003-8.408-31.675-46.165-31.675c-30.091,0-46.021,10.754-46.021,35.741
	c0,37.928,55.164,22.957,55.164,45.915c0,5.089-3.838,9.01-9.144,9.01c-3.394,0-5.31-1.454-6.491-3.776
	c-1.179-2.471-1.474-5.812-1.621-9.879h-39.086c-1.77,29.783,24.482,33.126,49.998,33.126c25.224,0,45.872-8.575,45.872-36.036
	c0-37.633-55.455-26.155-55.455-45.475c0-3.928,2.8-7.701,7.075-7.701c4.132,0,6.491,1.017,7.67,2.904
	c1.182,1.886,1.477,4.504,1.477,7.846H955.496z"/>
<path d="M578.215,623.311l-7.981,45.244h15.526L578.215,623.311z M523.802,704.296l23.625-88.389
	c0.633-3.148-0.088-5.188-1.874-6.21c-0.915-0.524-1.315-0.655-2.258-0.857c-0.639-0.136-1.272-0.224-1.862-0.295l0.003-6.318h9.646
	h53.689l26.7,102.069h-40.052l-2.899-16.009h-21.478l-2.902,16.009H523.802z"/>
<path d="M54.415,623.311l-7.98,45.244h15.524L54.415,623.311z M0,704.296l23.624-88.389c0.636-3.148-0.084-5.188-1.875-6.21
	c-0.913-0.524-1.312-0.655-2.254-0.857c-0.64-0.136-1.271-0.224-1.863-0.295l0.001-6.318h9.646h53.689l26.7,102.069h-40.05
	l-2.902-16.009H43.241l-2.902,16.009H0z"/>
<path d="M737.952,601.744l47.307-0.147v28.421l27.893-28.308h45.804l-39.603,38.876l37.894,63.108h-41.485l-21.986-37.879
	l-8.471,8.382v29.46h-39.177v-81.582l-0.15-6.264c-0.04-3.291-1.439-5.193-3.313-6.259c-0.912-0.522-1.908-0.835-2.851-1.036
	c-0.64-0.137-1.273-0.229-1.863-0.296L737.952,601.744z"/>
</svg>
