<?xml version="1.0" encoding="utf-8"?>
<!-- Generator: Adobe Illustrator 15.1.0, SVG Export Plug-In  -->
<!DOCTYPE svg PUBLIC "-//W3C//DTD SVG 1.1//EN" "http://www.w3.org/Graphics/SVG/1.1/DTD/svg11.dtd" [
	<!ENTITY ns_flows "http://ns.adobe.com/Flows/1.0/">
]>
<svg version="1.1"
	 xmlns="http://www.w3.org/2000/svg" xmlns:xlink="http://www.w3.org/1999/xlink" xmlns:a="http://ns.adobe.com/AdobeSVGViewerExtensions/3.0/"
	 x="0px" y="0px" width="1000px" height="1000px" viewBox="0 -396.625 1000 1000"
	 overflow="visible" enable-background="new 0 -396.625 1000 1000" xml:space="preserve">
<defs>
</defs>
<path fill="#003A7F" d="M422.509,81.88l-30.658,0.003l-3.391,6.442h18.536C417.641,88.325,419.405,87.505,422.509,81.88
	 M809.293,134.17h-50.506l-4.372,8.351l119.34,0.347c17.263,0,18.443-0.235,21.477-5.897l-4.885-0.305l-1.451-0.085l-8.778-0.564
	l-4.089-0.266c-22.753-1.466-40.723-2.623-48.092-15.733c-0.827-1.478-1.413-3.021-1.859-4.598l-11.476,18.751H809.293z
	 M832.834,82.66h-47.062l-3.472,6.622h47.47C830.728,87.016,831.764,84.798,832.834,82.66 M360.776,141.931l20.178-0.024
	c10.702,0,13.961-1.651,17.688-8.523l-2.459-0.021h-30.895L360.776,141.931z M459.31,113.19l0.59-1.131l-0.929,0.527L459.31,113.19z
	 M610.071,141.408l0.67,0.06c2.997,0.246,6.582,0.244,10.606,0.244c15.445,0,17.963-0.479,24.346-12.651l50.274-95.976h62.505
	l128.609,0.013l-3.1,3.191c14.217-3.887,30.009-4.311,46.28-4.311l19.251,0.263c9.259,0.18,19.754,0.383,31.503,0.383H1000
	c0,0-11.116,14.714-26.806,30.465c-14.21,14.262-15.907,16.037-17.155,16.764c-1.546,0.897-3.249,1.355-4.963,1.353H923.57
	l-9.348,0.334c-15.873,0-18.95,1.833-20.999,5.205l1.651,0.121l16.562,1.133c25.242,1.705,42.312,3.716,49.291,15.604
	c5.786,9.854,2.178,21.927-5.519,38.211c-7.966,16.856-14.85,31.415-29.914,40.294c-13.908,8.196-34.084,11.219-69.637,10.425
	c-37.479-0.833-189.712,0.389-189.712,0.389l9.808-18.825c-18.115,14.303-40.882,19.039-71.427,19.039
	c-13.799,0-35.261,0.234-48.064-6.697l-3.295,5.58H418.025l5.194-9.916c-13.795,7.783-29.664,9.416-48.639,9.416H181.911
	l83.384-159.191h181.919c21.551,0,39.397,6.002,43.797,20.336l10.252-19.577h62.541l-56.99,108.338h41.301
	c1.378-3.265,2.943-6.803,4.587-9.938l51.543-98.401h62.515C647.848,69.184,626.865,104.274,610.071,141.408"/>
<path fill="#969A9D" d="M392.216,129.354h-30.893l-4.506,8.563l20.175-0.023c11.118,0,14.112-1.972,17.658-8.512
	C393.927,129.367,393.145,129.354,392.216,129.354 M418.533,77.873h-30.647l-3.389,6.438h18.533
	C413.69,84.311,415.519,83.329,418.533,77.873 M880.002,32.277c14.22-3.885,30.014-4.311,46.286-4.311l19.252,0.265
	c9.257,0.177,19.75,0.379,31.502,0.379h18.942c0,0-10.198,14.552-26.074,30.533c-14.874,14.967-16.652,16.002-17.831,16.69
	c-1.551,0.901-3.26,1.363-4.977,1.359h-27.482l-9.373,0.338c-15.873,0-18.952,1.833-21.001,5.204l1.653,0.121l16.564,1.133
	c25.238,1.708,42.309,3.715,49.288,15.604c5.787,9.854,2.181,21.926-5.516,38.21c-7.968,16.856-14.851,31.415-29.919,40.296
	c-13.905,8.194-34.081,11.214-69.635,10.421c-37.479-0.835-189.708,0.391-189.708,0.391l9.897-18.996
	c-19.304,15.346-42.816,19.213-71.518,19.213c-19.4,0-36.73-0.682-48.032-6.755l-3.327,5.639H414.052l5.196-9.92
	c-1.159,0.654-2.337,1.271-3.537,1.85c-13.085,6.283-27.495,7.571-45.099,7.571H177.939l83.386-159.2h181.921
	c20.74,0,35.958,2.322,42.806,13.638c0.901,1.49,1.583,3.033,2.074,4.61l9.158-17.486h62.551l-56.991,108.336h41.292
	c1.361-3.225,2.902-6.72,4.589-9.936l51.545-98.401h62.521L607.026,135.52c-0.38,0.724-0.672,1.334-0.915,1.875
	c3.174,0.298,7.814,0.306,11.263,0.306c15.188,0,17.894-0.352,24.34-12.65l50.277-95.977l191.112,0.016L880.002,32.277z
	 M828.862,78.65h-47.065l-3.471,6.62h47.473C826.757,83.008,827.792,80.787,828.862,78.65 M805.321,130.158h-50.509l-4.369,8.35
	l119.342,0.348c17.259,0,18.441-0.235,21.472-5.896l-4.885-0.306l-1.448-0.087l-8.782-0.561l-4.101-0.266
	c-22.747-1.468-40.711-2.628-48.077-15.733c-0.829-1.478-1.413-3.023-1.865-4.598l-11.468,18.749H805.321z"/>
<path fill="#FFFFFF" d="M420.107,74.054h-35.544l-7.378,14.017h24.812c12.557,0,15.159-1.359,19.892-10.392
	c0.8-1.526,1.297-2.588,1.619-3.356C422.734,74.213,421.647,74.104,420.107,74.054 M829.944,74.829h-51.476l-7.439,14.201h56.295
	c1.364-3.518,3.131-7.34,5.317-11.515c1.321-2.518,2.667-4.891,4.036-7.145l-4.332,4.459H829.944z M804.286,126.339h-52.8
	l-8.33,15.91l125.593,0.366c19.327,0,20.993-0.596,25.456-9.106c0.91-1.74,1.486-2.951,1.863-3.823
	c-2.443-0.367-6.509-0.61-10.496-0.846l-1.44-0.087l-8.774-0.558l-4.091-0.267c-22.451-1.447-38.675-2.49-45.035-13.811
	c-1.573-2.8-2.371-5.977-2.371-9.642c0-1.855,0.22-3.845,0.63-5.964l-17.02,27.826H804.286z M468.013,91.124
	c-5.384,6.989-11.786,12.53-20.263,16.209c1.317,1.137,2.41,2.436,3.251,3.927c1.396,2.466,1.988,5.165,1.988,8.02l-0.006,0.552
	L468.013,91.124z M391.183,125.533H358c-1.71,3.249-8.649,16.15-8.649,16.15l26.607-0.029c12.18,0,16.773-2.402,21.363-11.165
	c1.176-2.248,1.699-3.631,1.941-4.457C398.083,125.779,395.783,125.533,391.183,125.533 M442.214,32.072
	c19.456,0,33.63,2.009,39.56,11.81c1.718,2.839,2.584,6.074,2.584,9.787c0,2.689-0.455,5.632-1.367,8.854l15.546-29.693h53.987
	l-56.992,108.341h50.093c1.549-3.742,3.386-8.09,5.42-11.968l50.481-96.373h53.964l-52.858,100.899
	c-2.066,3.948-2.335,5.791-2.352,6.424c2.027,1.294,10.414,1.307,16.057,1.307c15.856,0,20.309-0.584,27.696-14.681l49.213-93.949
	l179.861,0.016l-9.458,9.74c16.96-9.74,37.072-10.86,61.603-10.86l19.181,0.263c9.272,0.177,19.784,0.383,31.573,0.383h12.149
	c0,0-6.941,8.944-21.971,24.07c-14.521,14.615-16.23,15.61-17.051,16.089c-1.124,0.653-2.185,0.85-3.08,0.842h-30.73l-6.111,0.336
	c-20.619,0-22.371,3.35-25.277,8.901c-0.796,1.52-1.211,2.557-1.434,3.247c1.72,0.362,4.738,0.58,7.099,0.748l16.573,1.131
	c26.958,1.823,40.758,4.345,46.273,13.743c4.943,8.417,1.495,19.507-5.673,34.674c-8.017,16.962-14.349,30.361-28.414,38.651
	c-13.248,7.806-32.841,10.672-67.628,9.896c-37.537-0.836-183.52,0.337-183.52,0.337l21.794-41.835
	c-9.174,14.841-19.711,24.996-32.668,31.591c-14.284,7.271-31.867,10.512-57.019,10.512c-20.879,0-39.222-0.757-49.311-8.247
	l-4.211,7.131H419.281l10.326-19.722c-15.37,15.748-33.915,19.224-60.029,19.224h-186.41l79.417-151.618H442.214z"/>
<path fill="#003A7F" d="M425.684,80.167c4.402-8.409,4.627-11.579-6.696-11.947h-39.094L366.53,93.606h34.224
	C415.151,93.606,419.819,91.361,425.684,80.167 M440.974,37.608c30.671,0,46.058,5.231,29.997,35.898
	c-9.298,17.771-19.276,29.363-41.229,32.35l-0.786,1.504c22.174,1.312,19.528,13.832,10.328,31.406
	c-18.023,34.412-38.19,39.09-70.946,39.09h-33.67l17.753-30.643l22.296-0.024c13.396,0,20.425-2.812,26.4-14.212
	c6.071-11.595,2.218-13.277-11.175-13.277h-36.611l-30.615,58.156H191.322l73.462-140.248H440.974z M904.549,93.259
	c44.094,2.979,51.333,7.545,35.845,40.312c-16.347,34.588-23.158,46.806-90.775,45.298c-38.058-0.851-174.237,0.258-174.237,0.258
	L748.704,38.38h109.722l-29.722,30.615h-54.916l-13.397,25.57h58.52l-15.866,25.94h-56.239l-14.267,27.253l134.968,0.392
	c19.334,0,24.328-0.392,30.492-12.151c6.36-12.136,3.999-11.946-14.746-13.068l-8.758-0.559
	c-36.771-2.435-59.077-2.24-38.056-42.371c21.026-40.129,47.276-42.74,87.574-42.74c12.647,0,29.729,0.644,50.753,0.644
	c-0.096,0.58-28.952,29.989-29.937,29.634h-35.667l-1.189,0.337c-22.203,0-26.204,4.098-30.312,11.945
	c-5.868,11.196-0.097,11.564,10.406,12.311L904.549,93.259z M695.446,38.366h41.126l-48.887,93.326
	c-19.552,37.321-44.355,47.779-89.605,47.779c-27.399,0-45.17-1.715-50.235-12.177l-6.533,11.06H427.436l73.302-139.988h41.133
	l-56.991,108.335h63.299c1.721-4.111,4.08-10.088,6.66-15.009l48.886-93.326h41.133l-48.501,92.579
	c-8.309,15.858,1.464,16.045,18.743,16.045c17.475,0,24.124-1.305,32.734-17.727L695.446,38.366z"/>
<path fill="#003A7F" d="M263.986,12.08c54.46,15.431,88.541,52.571,54.737,111.029c-18.862,32.617-59.375,56.014-102.938,69.444
	c-58.85,18.146-144.042,25.507-194.175-19.056c-22.979-20.428-20.34-58.287-7.52-83.929c16.957-33.906,73.076-61.893,107.583-72.12
	c29.653-8.784,67.914-12.112,67.914-12.112C205.268,4.607,241.176,5.616,263.986,12.08"/>
<path fill="#969A9D" d="M260.441,6.947c54.463,15.431,88.543,52.574,54.737,111.028C250.792,229.305-28.599,228.44,2.391,112.215
	c2.498-9.367,3.806-19.079,8.155-27.78c16.951-33.896,73.08-61.893,107.58-72.118c29.656-8.787,67.917-12.115,67.917-12.115
	C201.724-0.525,237.633,0.484,260.441,6.947"/>
<path fill="#FFFFFF" d="M259.699,10.734c52.07,14.749,84.967,49.331,52.491,105.484c-38.044,65.787-159.94,90.909-228.804,77.845
	c-38.344-7.272-90.561-30.049-77.045-80.73c2.417-9.063,3.667-18.626,7.882-27.061c16.408-32.811,71.908-60.298,105.271-70.181
	c29.324-8.69,67.087-11.967,67.087-11.967C202.116,3.403,237.471,4.433,259.699,10.734"/>
<path fill="#7FBEE8" d="M305.863,90.146l-0.397,1.337c0.021-0.021-24.658,3.544-28.368,3.512
	c-39.649-0.311-246.526,1.985-247.714,1.687c18.561-40.497,109.286-68.365,164.658-68.476c15.82-0.032,32.994,0.322,53.695,5.346
	l-72.3,8.802l103.271,2.561c0,0-78.175,11.346-76.645,11.368c1.532,0.012,94.693,1.781,94.693,1.781l-82.092,12.04l91.228,4.223
	c0,0-84.75,9.261-83.213,9.277C223.804,83.62,305.877,90.136,305.863,90.146"/>
<path fill="#006BB6" d="M21.501,111.603l0.398-1.339c-0.021,0.022,6.057,0.021,9.768,0.052c39.65,0.312,262.787-0.657,263.976-0.359
	c-16.852,37.4-106.948,63.473-162.317,63.587c-15.823,0.03-32.997-0.319-53.697-5.348l72.3-8.803l-103.271-2.561
	c0,0,78.178-11.345,76.645-11.362c-1.533-0.017-94.693-1.784-94.693-1.784l81.995-10.471l-91.13-5.794
	c0,0,84.868-6.778,83.331-6.794C103.679,120.609,21.487,111.613,21.501,111.603"/>
<path fill="#003A7F" d="M313.121,88.475l-0.449,1.139l-0.036,0.122c-0.362,1.225,0.303,2.035,1.477,1.807
	c1.154-0.222,2.368-1.298,2.751-2.5l0.351-1.004C331.3,44.051,280.833,10.546,204.608,9.708
	C135.707,8.949,63.055,37.396,29.39,75.072l-2.999,3.625c-5.848,6.705-9.558,14.588-10.63,21.571
	c-0.115,4.028,1.287,5.146,3.157,5.393l11.947-0.003h263.731l3.796-0.055c3.338,0.045,2.743,3.597-0.4,9.686
	c-8.008,15.515-38.052,31.797-36.586,31.086c-35.066,18.434-82.075,32.476-132.029,31.928
	c-66.828-0.738-115.175-23.471-115.093-53.509c0.016-5.081,1.401-9.496,1.828-10.733l0.446-1.141l0.038-0.12
	c0.36-1.226-0.303-2.037-1.479-1.809c-1.153,0.224-2.371,1.352-2.755,2.557l-0.21,0.628
	c-14.059,43.641,35.979,76.899,111.583,77.726c68.285,0.753,140.296-27.441,173.664-64.785l2.972-3.592
	c5.792-6.646,9.474-14.459,10.536-21.379c0.071-2.438-1.325-3.5-3.175-3.97L296.6,95.999c-11.117-2.174-25.331-4.884-26.948-4.884
	c-2.692,0-25.318-9.158-29.09-10.774c-3.769-1.613-14.003-6.463-16.16-8.618c-2.155-2.157-7.539-4.312-8.618-7.541
	c-1.079-3.235-6.465-7.542-8.083-7.542c-1.615,0-5.923-2.155-5.923-2.155l-4.849-8.083l-12.389,2.157l-7.003-1.617l-7.543,4.849
	l-6.466,4.845l-6.463-2.151l-8.62,4.308c0,0-27.473,15.621-33.937,16.7c-6.465,1.079-26.938,7.541-26.938,7.541L28.518,95.576
	l-0.315,0.085c-3.625,0.73-2.609-2.462,0.588-8.656c8.082-15.651,38.394-32.079,36.913-31.359
	c35.38-18.6,82.811-32.768,133.21-32.213c67.426,0.743,116.204,23.683,116.122,53.984c-0.013,4.711-1.198,8.859-1.723,10.466
	L313.121,88.475z"/>
</svg>
